<svg width="56" height="22" viewBox="0 0 56 22" fill="none" xmlns="http://www.w3.org/2000/svg">
<path d="M6.19845 3.0002C6.19845 1.34335 7.54159 0.000207803 9.19844 0.000200624L52.5 1.2999e-05C54.1568 5.81987e-06 55.5 1.34315 55.5 3.00001V19C55.5 20.6569 54.1569 22 52.5 22L9.19846 22.0002C7.5416 22.0002 6.19845 20.6571 6.19845 19.0002V16.0313C6.19845 14.8046 5.45287 13.7023 4.31525 13.2433C3.20112 12.7937 1.8378 12.2404 0.945542 11.867C0.21161 11.5598 0.597514 11.3006 1.30913 10.9448C2.24657 10.4761 3.52569 9.83658 4.54048 9.32919C5.55684 8.82102 6.19845 7.78242 6.19845 6.6461V3.0002Z" fill="#FF6D3B"/>
<path d="M15.375 15C15.452 15 15.496 14.967 15.518 14.89L16.013 13.438H18.829L19.324 14.89C19.346 14.967 19.39 15 19.467 15H20.545C20.622 15 20.644 14.967 20.622 14.89L18.092 7.63C18.07 7.553 18.026 7.52 17.949 7.52H16.937C16.86 7.52 16.816 7.553 16.794 7.63L14.231 14.89C14.209 14.967 14.231 15 14.308 15H15.375ZM17.41 9.379H17.443L18.433 12.283H16.409L17.41 9.379ZM22.8021 15C22.8791 15 22.9121 14.967 22.9121 14.89V11.854C22.9121 11.81 22.9341 11.788 22.9781 11.788H23.7811C24.2431 11.788 24.5621 12.019 24.7491 12.47L25.3101 13.889C25.6291 14.692 26.0911 15.044 26.8391 15.044H27.3781C27.4551 15.044 27.4881 15.011 27.4881 14.934V13.977C27.4881 13.911 27.4551 13.878 27.3781 13.878H27.2131C26.7841 13.878 26.6631 13.768 26.4871 13.284L25.9701 11.964C25.7831 11.491 25.5191 11.216 25.1781 11.139V11.095C25.4531 10.985 25.6951 10.677 25.8931 10.16L26.2781 9.181C26.4541 8.741 26.5971 8.62 27.0041 8.62H27.1471C27.2241 8.62 27.2571 8.587 27.2571 8.521V7.586C27.2571 7.509 27.2241 7.476 27.1471 7.476H26.6961C25.9591 7.476 25.5081 7.806 25.1891 8.609L24.6831 9.874C24.4851 10.369 24.1661 10.622 23.7151 10.622H22.9781C22.9341 10.622 22.9121 10.6 22.9121 10.556V7.63C22.9121 7.553 22.8791 7.52 22.8021 7.52H21.7241C21.6471 7.52 21.6141 7.553 21.6141 7.63V14.89C21.6141 14.967 21.6471 15 21.7241 15H22.8021ZM34.801 16.562C34.867 16.562 34.9 16.529 34.9 16.463V13.933C34.9 13.867 34.867 13.834 34.79 13.834H34.141C34.097 13.834 34.075 13.812 34.075 13.768V7.63C34.075 7.553 34.042 7.52 33.976 7.52H32.876C32.81 7.52 32.777 7.553 32.777 7.63V13.768C32.777 13.812 32.755 13.834 32.711 13.834H29.939C29.895 13.834 29.873 13.812 29.873 13.768V7.63C29.873 7.553 29.84 7.52 29.774 7.52H28.685C28.608 7.52 28.575 7.553 28.575 7.63V14.901C28.575 14.967 28.608 15 28.685 15H33.624C33.668 15 33.69 15.022 33.69 15.066V16.463C33.69 16.529 33.723 16.562 33.778 16.562H34.801ZM37.0339 15C37.0889 15 37.1329 14.978 37.1659 14.923L40.3009 9.742H40.3339V14.89C40.3339 14.967 40.3669 15 40.4439 15H41.5219C41.5989 15 41.6319 14.967 41.6319 14.89V7.619C41.6319 7.553 41.5989 7.52 41.5219 7.52H40.5099C40.4439 7.52 40.3999 7.542 40.3779 7.586L37.2429 12.756H37.2099V7.619C37.2099 7.553 37.1769 7.52 37.1109 7.52H36.0219C35.9449 7.52 35.9119 7.553 35.9119 7.619V14.89C35.9119 14.967 35.9449 15 36.0219 15H37.0339ZM43.3361 15.044C44.1831 15.044 44.6341 14.725 44.9751 13.889L45.4701 12.701C45.6791 12.217 45.9321 12.107 46.3831 12.107H47.2301C47.2741 12.107 47.2961 12.129 47.2961 12.173V14.89C47.2961 14.967 47.3291 15 47.4061 15H48.4841C48.5611 15 48.5941 14.967 48.5941 14.89V7.619C48.5941 7.553 48.5611 7.52 48.4841 7.52H45.5141C44.7991 7.52 44.2161 7.729 43.7871 8.136C43.3581 8.543 43.1491 9.06 43.1491 9.709C43.1491 10.864 43.7871 11.601 44.7221 11.777V11.821C44.5021 11.964 44.3261 12.184 44.2051 12.459L43.8201 13.339C43.6441 13.746 43.4901 13.878 43.0831 13.878H42.9291C42.8521 13.878 42.8191 13.911 42.8191 13.977V14.934C42.8191 15.011 42.8521 15.044 42.9291 15.044H43.3361ZM45.6571 10.952C44.9421 10.952 44.4471 10.567 44.4471 9.819C44.4471 9.071 44.9421 8.686 45.6571 8.686H47.2301C47.2741 8.686 47.2961 8.708 47.2961 8.752V10.886C47.2961 10.93 47.2741 10.952 47.2301 10.952H45.6571Z" fill="white"/>
</svg>
