<svg width="24" height="12" viewBox="0 0 24 12" fill="none" xmlns="http://www.w3.org/2000/svg">
<path d="M0.9375 5.03226H20.7918L17.5028 1.65367C17.1358 1.27664 17.1344 0.663916 17.4997 0.285093C17.8649 -0.0937777 18.4586 -0.0951806 18.8255 0.281803L23.7242 5.31406C23.7245 5.31435 23.7247 5.31469 23.725 5.31498C24.0911 5.69202 24.0922 6.30673 23.7251 6.68502C23.7248 6.68531 23.7245 6.68565 23.7243 6.68594L18.8256 11.7182C18.4587 12.0951 17.8651 12.0938 17.4998 11.7149C17.1345 11.3361 17.1359 10.7234 17.5029 10.3463L20.7918 6.96774H0.9375C0.419718 6.96774 0 6.53448 0 6C0 5.46552 0.419718 5.03226 0.9375 5.03226Z" fill="#45B553"/>
</svg>
