<svg width="25" height="22" viewBox="0 0 25 22" fill="none" xmlns="http://www.w3.org/2000/svg">
<path d="M20.4157 3.18506C20.4696 3.31547 20.5011 3.45722 20.5011 3.60841C20.5011 4.21888 20.0148 4.71405 19.4151 4.71405C18.8155 4.71405 18.3291 4.21888 18.3291 3.60841C18.3291 3.45722 18.3607 3.31547 18.4145 3.18506" stroke="#344154" stroke-width="0.5" stroke-miterlimit="10" stroke-linecap="round"/>
<path d="M19.416 3.58927V1" stroke="#344154" stroke-width="0.5" stroke-miterlimit="10" stroke-linecap="round"/>
<path d="M6.0127 3.58927V1" stroke="#344154" stroke-width="0.5" stroke-miterlimit="10" stroke-linecap="round"/>
<path d="M24.4284 7.48096V19.832C24.4284 20.4765 23.9141 21 23.2811 21H2.14728C1.51424 21 1 20.4765 1 19.832V7.48096" stroke="#344154" stroke-miterlimit="10"/>
<path d="M5.01411 3.18506C4.96027 3.31547 4.92871 3.45722 4.92871 3.60841C4.92871 4.21888 5.4151 4.71405 6.01473 4.71405C6.61437 4.71405 7.10075 4.21888 7.10075 3.60841C7.10075 3.45722 7.0692 3.31547 7.01536 3.18506" stroke="#344154" stroke-width="0.5" stroke-miterlimit="10" stroke-linecap="round"/>
<path d="M18.2161 1.71875H7.21289" stroke="#344154" stroke-miterlimit="10" stroke-linecap="round"/>
<path d="M4.81314 1.7182H2.14728C1.51424 1.7182 1 2.24172 1 2.88621V7.48264H24.4284V2.88432C24.4284 2.23983 23.9141 1.71631 23.2811 1.71631H20.6152" stroke="#344154" stroke-miterlimit="10" stroke-linecap="round"/>
<path d="M15.0957 13.7498H13.1965V11.8145H12.2312V13.7498H10.332V14.7326H12.2312V16.666H13.1965V14.7326H15.0957V13.7498Z" fill="#FF6D3B"/>
<path d="M12.714 19.0686C15.3326 19.0686 17.4554 16.9074 17.4554 14.2416C17.4554 11.5757 15.3326 9.41455 12.714 9.41455C10.0954 9.41455 7.97266 11.5757 7.97266 14.2416C7.97266 16.9074 10.0954 19.0686 12.714 19.0686Z" stroke="#344154" stroke-miterlimit="10" stroke-linecap="round"/>
<path d="M21.3728 3.88623C21.3171 4.93895 20.465 5.77432 19.4161 5.77432C18.3672 5.77432 17.5151 4.93706 17.4594 3.88623H7.96927C7.91358 4.93895 7.06147 5.77432 6.01258 5.77432C4.96554 5.77432 4.11157 4.93706 4.05588 3.88623H1.97852V6.10696H23.4483V3.88623H21.3728Z" fill="#FF6D3B"/>
</svg>
