<svg width="16" height="12" viewBox="0 0 16 12" fill="none" xmlns="http://www.w3.org/2000/svg">
<path d="M16 1.48022C16 0.668346 15.3395 0.0078125 14.5276 0.0078125H1.47241C0.66069 0.00784375 0.000281251 0.668065 0 1.48047V1.48072V10.5182C0 11.3403 0.667253 11.9911 1.47291 11.9911H14.5271C15.3491 11.9911 16 11.3239 16 10.5182V1.48072C16 1.48066 16 1.4806 16 1.48054C16 1.48044 16 1.48035 16 1.48022ZM1.47241 0.945347H14.5276C14.8225 0.945347 15.0625 1.18532 15.0625 1.48101C15.0625 1.63813 14.9844 1.78398 14.8535 1.87123L8.29703 6.24237C8.11663 6.36265 7.88344 6.36268 7.703 6.24237C7.703 6.24237 1.14641 1.87113 1.14654 1.87123C1.14657 1.87126 1.14644 1.87116 1.14641 1.87113C1.0156 1.78398 0.937504 1.63813 0.937504 1.48022C0.937504 1.18529 1.17747 0.945347 1.47241 0.945347ZM14.5271 11.0536H1.47291C1.18107 11.0536 0.937504 10.8177 0.937504 10.5182V2.85864L7.18293 7.02237C7.43112 7.18784 7.71556 7.27056 8 7.27056C8.28447 7.27056 8.56894 7.18784 8.8171 7.02237L15.0625 2.85864V10.5183C15.0625 10.8101 14.8265 11.0536 14.5271 11.0536Z" fill="#45B553"/>
</svg>
