<svg width="19" height="12" viewBox="0 0 19 12" fill="none" xmlns="http://www.w3.org/2000/svg">
<g opacity="0.5">
<path d="M9.5 0C5.86985 0 2.57784 1.98609 0.148665 5.21203C-0.0495551 5.47632 -0.0495551 5.84556 0.148665 6.10985C2.57784 9.33967 5.86985 11.3258 9.5 11.3258C13.1302 11.3258 16.4222 9.33967 18.8513 6.11373C19.0496 5.84944 19.0496 5.48021 18.8513 5.21591C16.4222 1.98609 13.1302 0 9.5 0ZM9.76041 9.65061C7.35067 9.80219 5.36069 7.8161 5.51227 5.40247C5.63665 3.4125 7.24962 1.79953 9.23959 1.67516C11.6493 1.52358 13.6393 3.50966 13.4877 5.92329C13.3595 7.90938 11.7465 9.52235 9.76041 9.65061ZM9.63992 7.80832C8.34177 7.88994 7.26905 6.82111 7.35456 5.52296C7.42063 4.45024 8.29124 3.58351 9.36397 3.51355C10.6621 3.43193 11.7348 4.50077 11.6493 5.79892C11.5794 6.87552 10.7088 7.74225 9.63992 7.80832Z" fill="#FF6D3B"/>
</g>
</svg>
