<svg width="16" height="16" viewBox="0 0 16 16" fill="none" xmlns="http://www.w3.org/2000/svg">
<path d="M12.7431 1.96475C11.4762 0.697752 9.79167 0 7.99994 0C6.20822 0 4.52372 0.697751 3.25668 1.96472C1.98974 3.23166 1.29199 4.91613 1.29199 6.70786C1.29199 8.49955 1.98974 10.1841 3.25668 11.4511L7.6685 15.8627C7.76004 15.9543 7.88001 16 7.99994 16C8.11991 16 8.23988 15.9543 8.33141 15.8627L12.743 11.4511C14.0099 10.1841 14.7077 8.49958 14.7077 6.70783C14.7078 4.9161 14.01 3.23163 12.7431 1.96475ZM12.0801 10.7881L7.99991 14.8684L3.91959 10.7881C1.66974 8.53824 1.66974 4.87745 3.91956 2.62766C5.00953 1.53775 6.45866 0.937502 7.99994 0.937502C9.54123 0.937502 10.9903 1.53775 12.0802 2.62766C14.33 4.87745 14.33 8.53824 12.0801 10.7881Z" fill="#344154"/>
<path d="M10.1068 4.60157C9.54407 4.03888 8.79594 3.729 8.00016 3.729C7.20441 3.729 6.45625 4.03888 5.89359 4.60157C5.33087 5.16426 5.021 5.91241 5.021 6.7082C5.021 7.50395 5.3309 8.25211 5.89359 8.8148C6.45625 9.37748 7.20438 9.68736 8.00016 9.68736C8.79594 9.68736 9.5441 9.37748 10.1068 8.81476C10.6695 8.25208 10.9794 7.50395 10.9794 6.70817C10.9794 5.91238 10.6695 5.16426 10.1068 4.60157ZM9.44385 8.15183C9.05822 8.53745 8.5455 8.74983 8.00013 8.74983C7.45478 8.74983 6.94209 8.53745 6.55647 8.15186C6.17084 7.76623 5.95847 7.25354 5.95847 6.7082C5.95847 6.16285 6.17084 5.65013 6.55647 5.26448C6.94206 4.87888 7.45478 4.66651 8.00013 4.66651C8.5455 4.66651 9.05819 4.87888 9.44382 5.26448C9.82944 5.65007 10.0418 6.16279 10.0418 6.70813C10.0419 7.25351 9.82951 7.7662 9.44385 8.15183Z" fill="#FF6D3B"/>
</svg>
