<svg width="32" height="32" viewBox="0 0 32 32" fill="none" xmlns="http://www.w3.org/2000/svg">
<path d="M24.9432 3.59879C23.9231 4.81773 23.8355 6.42246 24.7444 7.18459C25.6556 7.94672 27.2177 7.57513 28.2379 6.35619C29.258 5.13726 29.3456 3.53252 28.4367 2.77039C27.5254 2.00826 25.9609 2.37986 24.9432 3.59879Z" stroke="#344154" stroke-width="0.8411" stroke-miterlimit="10"/>
<path d="M25.9538 4.60938C25.7077 4.936 25.5562 5.30523 25.5396 5.63896C25.5278 5.84725 25.5728 6.02239 25.658 6.0934C25.71 6.136 25.7905 6.1573 25.897 6.1573C26.2 6.1573 26.7089 5.97032 27.1491 5.44251C27.3242 5.23186 27.4449 5.01884 27.5254 4.82003C26.9526 4.96204 26.3941 4.89813 25.9538 4.60938Z" fill="#FF6D3B"/>
<path d="M13.213 5.28856L13.2911 5.21046C13.8213 4.68265 14.9124 3.7998 16.2639 3.7998C17.6154 3.7998 18.7041 4.68501 19.2343 5.21046" stroke="#344154" stroke-width="0.8411" stroke-miterlimit="10" stroke-linecap="round"/>
<path d="M29.258 1.76198C29.9751 1.05665 30.9503 1.30754 31.2651 2.20222C31.774 3.65074 31.7669 6.86967 29.0426 9.10399C28.2071 9.79038 27.1207 10.1004 26.0438 10.207C24.3467 10.3726 21.4521 10.1454 18.6166 7.53949C18.484 7.41878 18.3586 7.28861 18.2308 7.16316C17.9349 6.86967 17.1349 6.16435 16.2615 6.16435C15.3882 6.16435 14.5858 6.86967 14.2923 7.16316C14.1645 7.28861 14.0391 7.41878 13.9065 7.53949C11.071 10.1454 8.1787 10.375 6.47929 10.207C5.40236 10.1004 4.31597 9.79038 3.48047 9.10399C0.758577 6.86967 0.749109 3.65074 1.26035 2.20222C1.57514 1.30754 2.55029 1.05665 3.26745 1.76198" stroke="#344154" stroke-width="0.8411" stroke-miterlimit="10" stroke-linecap="round"/>
<path d="M7.77941 7.18242C8.68978 6.42089 8.60171 4.81602 7.5827 3.59785C6.56369 2.37968 4.99963 2.0095 4.08926 2.77103C3.17889 3.53256 3.26696 5.13742 4.28596 6.35559C5.30497 7.57377 6.86904 7.94395 7.77941 7.18242Z" stroke="#344154" stroke-width="0.8411" stroke-miterlimit="10"/>
<path d="M6.5716 4.60938C6.81775 4.936 6.96923 5.30523 6.9858 5.63896C6.99763 5.84725 6.95266 6.02239 6.86746 6.0934C6.81538 6.136 6.73491 6.1573 6.6284 6.1573C6.32544 6.1573 5.81657 5.97032 5.37633 5.44251C5.20118 5.23186 5.08047 5.01884 5 4.82003C5.57041 4.96204 6.13136 4.89813 6.5716 4.60938Z" fill="#FF6D3B"/>
<path d="M9.26981 10.0366C9.26981 10.0366 11.1917 10.3703 11.6248 14.5692C11.7124 15.4236 11.9278 16.2686 12.3018 17.0425C12.5171 17.4899 12.8035 17.9585 13.1751 18.3846C13.1751 18.3846 12.5929 22.1029 13.7384 23.6414L13.5917 23.8189C13.116 24.3988 12.9621 25.1775 13.1822 25.8922L14.645 30.6449H16.2615" stroke="#344154" stroke-width="0.8411" stroke-miterlimit="10" stroke-linecap="round"/>
<path d="M23.2556 10.0366C23.2556 10.0366 21.3337 10.3703 20.9006 14.5692C20.813 15.4236 20.5976 16.2686 20.2237 17.0425C20.0083 17.4899 19.7219 17.9585 19.3503 18.3846C19.3503 18.3846 19.9325 22.1029 18.787 23.6414L18.9337 23.8189C19.4094 24.3988 19.5633 25.1775 19.3432 25.8922L17.8805 30.6449H16.2639" stroke="#344154" stroke-width="0.8411" stroke-miterlimit="10" stroke-linecap="round"/>
<path d="M13.0923 14.8081C14.8225 13.007 17.2532 11.8851 19.9467 11.8851C19.9704 11.8851 19.9917 11.8874 20.0154 11.8874C20.1858 11.3857 20.3799 10.9549 20.5905 10.5951C19.6319 10.1336 18.6402 9.48743 17.658 8.58566C17.5396 8.47678 17.426 8.36317 17.3101 8.24956L17.2319 8.17145C16.8485 7.79039 16.4461 7.58447 16.2615 7.58447C16.0769 7.58447 15.6746 7.79039 15.2935 8.16909L15.2201 8.24246C15.1041 8.35844 14.9882 8.47441 14.8674 8.58566C13.8852 9.48743 12.8935 10.1312 11.9349 10.5951C12.4319 11.4496 12.8556 12.6709 13.0355 14.4247C13.0497 14.5549 13.071 14.6827 13.0923 14.8081Z" fill="#FF6D3B"/>
<path d="M13.7384 23.6416C13.7384 23.6416 14.5077 24.2144 15.613 24.2144" stroke="#344154" stroke-width="0.8411" stroke-miterlimit="10" stroke-linecap="round"/>
<path d="M18.787 23.6416C18.787 23.6416 18.0177 24.2144 16.9124 24.2144" stroke="#344154" stroke-width="0.8411" stroke-miterlimit="10" stroke-linecap="round"/>
<path d="M16.2615 22.0437V18.02" stroke="#344154" stroke-width="0.8411" stroke-miterlimit="10" stroke-linecap="round"/>
</svg>
