<svg width="30" height="32" viewBox="0 0 30 32" fill="none" xmlns="http://www.w3.org/2000/svg">
<path d="M16.6228 1V1.39937C16.6228 3.07765 16.9818 4.11648 17.5927 5.39778C17.9707 6.187 19.1165 6.08716 19.3637 5.24564C19.687 4.1355 20.4786 2.98257 22.3542 2.88748C23.3788 2.83518 24.401 3.11094 25.2686 3.65769C27.0349 4.76545 29.9849 8.13391 28.7322 14.4358C28.7322 14.4358 28.5919 15.2631 28.1878 16.504C28.1878 16.504 26.8399 21.5864 22.4921 24.981C22.0666 25.3138 21.6006 25.6109 21.1109 25.8891C16.4017 28.561 10.9556 27.546 7.20682 23.6403C6.84548 23.2623 6.48178 22.851 6.1252 22.4065C5.60697 21.7575 4.55864 22.0713 4.47781 22.8986C4.37084 24.0135 4.38986 30.0016 4.38986 31" stroke="#344154" stroke-width="0.634707" stroke-miterlimit="10" stroke-linecap="round"/>
<path d="M26.5095 9.01141C25.8938 6.70316 24.4224 5.69999 24.1823 5.54786C23.714 5.25309 23.1696 5.09619 22.6323 5.09619" stroke="#344154" stroke-width="0.634707" stroke-miterlimit="10" stroke-linecap="round"/>
<path d="M6.44373 13.4279V16.7987C6.44373 17.374 6.80744 17.8352 7.28288 18.1561C8.43343 18.9287 9.61727 19.2567 9.61727 19.2567C13.1307 20.1601 16.1046 18.061 16.4398 14.7615C16.6894 12.2987 15.4176 10.0951 15.4176 10.0951C13.2139 5.97781 13.1402 2.00079 13.1402 2.00079V1" stroke="#344154" stroke-width="0.634707" stroke-miterlimit="10" stroke-linecap="round"/>
<path d="M1 30.9998V22.1662C1 20.1361 2.24802 18.9 3.05151 18.3152C3.46038 18.0181 3.70761 17.5474 3.70761 17.0434V13.4277" stroke="#344154" stroke-width="0.634707" stroke-miterlimit="10" stroke-linecap="round"/>
<path d="M17.1529 9.68826C17.1078 9.65736 16.9223 9.54088 16.6846 9.39111C16.6846 9.39349 16.687 9.39587 16.687 9.39825C16.8558 9.69539 18.1632 12.1344 17.8803 14.9062C17.6759 16.9125 16.6941 18.6265 15.1133 19.7271C13.9841 20.5139 12.6529 20.9181 11.2409 20.9181C10.5919 20.9181 9.92393 20.8325 9.25118 20.6589L9.22504 20.6518C9.08003 20.6114 7.77971 20.2358 6.46988 19.3586C6.25594 19.216 6.06814 19.0567 5.89936 18.8879H5.89461C5.89461 18.8879 7.07607 21.2532 9.55546 22.5631C17.6545 26.842 25.3589 15.3269 17.1529 9.68826Z" fill="#FF6D3B"/>
</svg>
