<svg width="24" height="32" viewBox="0 0 24 32" fill="none" xmlns="http://www.w3.org/2000/svg">
<path d="M13.7888 20.7051L13.2228 21.2598C12.6121 21.8571 11.6346 21.8571 11.0239 21.2598L10.4579 20.7051" stroke="#344154" stroke-width="0.83014" stroke-miterlimit="10" stroke-linecap="round" stroke-linejoin="round"/>
<path d="M12.9812 21.4526L14.8379 28.2642L12.1222 31L9.40652 28.2642L11.2632 21.4526" stroke="#344154" stroke-width="0.83014" stroke-miterlimit="10" stroke-linecap="round"/>
<path d="M12.9812 21.4526L14.8379 28.2642L12.1222 31L9.40652 28.2642L11.2632 21.4526" stroke="#344154" stroke-width="0.83014" stroke-miterlimit="10" stroke-linecap="round"/>
<path d="M16.6812 28.1998L23.24 26.8419L22.372 22.5C22.1796 21.5425 21.6607 20.6724 20.9068 20.0483C20.4236 19.6523 19.936 19.3973 19.4707 19.2944L15.764 18.2184C15.6835 18.196 15.6074 18.1602 15.5381 18.1133C15.3435 17.9813 15.2137 17.771 15.1869 17.5384L15.0146 16.0709C16.0526 15.2656 16.8199 14.0599 17.189 12.6528C17.8511 12.5947 18.3589 11.8587 18.3589 10.9281C18.3589 10.0691 17.9272 9.37567 17.3366 9.22803" stroke="#344154" stroke-width="0.83014" stroke-miterlimit="10" stroke-linecap="round"/>
<path d="M6.87652 9.23926C6.30386 9.40256 5.88778 10.0871 5.88778 10.9304C5.88778 11.8587 6.39333 12.5925 7.05324 12.6551C7.42458 14.0599 8.19186 15.2657 9.22757 16.0732L9.05756 17.5407C9.03072 17.7755 8.90321 17.9858 8.70636 18.1178C8.63701 18.1648 8.56096 18.2006 8.48043 18.2229L4.78495 19.2944C4.30624 19.3996 3.81635 19.6546 3.3354 20.0528C2.57706 20.6791 2.05809 21.5493 1.86794 22.5045L1 26.8464L6.87428 28.0589" stroke="#344154" stroke-width="0.83014" stroke-miterlimit="10" stroke-linecap="round"/>
<path d="M7.27022 6.59912C6.82059 7.97933 6.87652 9.23875 6.87652 9.23875" stroke="#344154" stroke-width="0.83014" stroke-miterlimit="10" stroke-linecap="round"/>
<path d="M17.3366 9.22739C17.3366 9.22739 17.3992 7.9635 16.9541 6.58105" stroke="#344154" stroke-width="0.83014" stroke-miterlimit="10" stroke-linecap="round"/>
<path d="M16.9541 6.5837C15.9497 7.09596 14.9274 7.219 13.8089 7.09596C12.6367 6.96622 11.7218 6.40474 10.6771 5.92827C9.95236 5.59719 9.1135 5.38021 8.36635 5.65312C7.90553 5.82089 7.48498 6.15867 7.27023 6.59936" stroke="#344154" stroke-width="0.83014" stroke-miterlimit="10" stroke-linecap="round"/>
<path d="M15.1466 17.1934L12.1222 19.9001L9.09784 17.1934" stroke="#344154" stroke-width="0.83014" stroke-miterlimit="10" stroke-linecap="round" stroke-linejoin="round"/>
<path d="M16.9518 24.4704L20.3744 23.8262" stroke="#344154" stroke-width="0.83014" stroke-miterlimit="10" stroke-linecap="round" stroke-linejoin="round"/>
<path d="M7.17404 6.91455V2.61957C7.17404 1.72478 7.89882 1 8.79361 1H15.3345C16.2293 1 16.9541 1.72478 16.9541 2.61957V6.58348" stroke="#344154" stroke-width="0.83014" stroke-miterlimit="10" stroke-linecap="round"/>
<path d="M12.0641 4.72699V2.46094" stroke="#FF6D3B" stroke-width="0.83014" stroke-miterlimit="10" stroke-linecap="round"/>
<path d="M10.9299 3.59473H13.1982" stroke="#FF6D3B" stroke-width="0.83014" stroke-miterlimit="10" stroke-linecap="round"/>
<path d="M10.8113 27.8349L12.1222 29.2666L13.4331 27.8349L12.8067 25.4727C12.243 25.8149 11.6793 26.0431 11.2475 26.1907L10.8113 27.8349Z" fill="#FF6D3B"/>
</svg>
