<svg width="28" height="22" viewBox="0 0 28 22" fill="none" xmlns="http://www.w3.org/2000/svg">
<path d="M7.66707 19.9542C9.12119 19.9542 10.3042 18.7719 10.3042 17.3188C10.3042 16.1002 9.92088 15.4474 9.58268 14.8715C9.30342 14.396 9.06219 13.9852 9.02996 13.2756C9.03061 11.3425 9.27043 8.59615 10.4073 6.47423C11.0819 5.21511 11.7636 4.76839 11.7684 4.76523C11.7686 4.76511 11.7688 4.76499 11.769 4.76488C11.9335 4.66199 11.9836 4.44531 11.8808 4.28072C11.7781 4.11613 11.5614 4.06585 11.3967 4.16839C11.3966 4.16851 11.3963 4.16863 11.3962 4.16874C10.8568 4.50601 10.2918 5.05996 9.71691 5.81523C9.20363 6.48941 8.68408 7.32753 8.21439 8.23884C7.27859 10.0545 6.60365 12.0131 6.40906 13.4781C6.34848 13.9341 6.17223 14.3866 5.89935 14.7866C5.29801 15.6682 5.02888 16.6937 5.02888 17.3188C5.02888 18.7719 6.21236 19.9542 7.66707 19.9542ZM6.48019 15.1828C6.81471 14.6924 7.03109 14.135 7.10609 13.5706C7.29066 12.1814 7.93859 10.3086 8.83941 8.56087C8.85611 8.52853 8.87275 8.49636 8.88951 8.46425C8.55617 9.71394 8.32678 11.2961 8.32678 13.2834C8.32678 13.2884 8.32689 13.2935 8.32707 13.2985C8.36551 14.1876 8.676 14.7163 8.97635 15.2276C9.29756 15.7746 9.60108 16.2914 9.60108 17.3188C9.60108 18.3842 8.73348 19.2511 7.66707 19.2511C6.60008 19.2511 5.73195 18.3842 5.73195 17.3188C5.73201 16.8184 5.96615 15.9365 6.48019 15.1828Z" fill="#FF6D3B"/>
<path d="M27.4936 14.0015C25.5807 13.8043 23.9963 13.7197 22.0114 13.906C21.8918 13.9172 21.7862 13.9887 21.7314 14.0957C21.6766 14.2026 21.6802 14.33 21.7409 14.4338C22.7123 16.092 22.8316 17.8069 22.0682 19.1387C21.4247 20.2616 20.2582 20.932 18.9479 20.932C17.6851 20.932 16.5013 20.2684 15.8583 19.2003C15.4299 18.4886 14.8828 16.9702 16.0332 14.798C16.092 14.6869 16.0871 14.5528 16.0202 14.4464C15.9533 14.3399 15.8346 14.2774 15.7089 14.2822C14.4153 14.3322 12.6174 14.36 11.0169 14.3547C11.0165 14.3547 11.0161 14.3547 11.0157 14.3547C10.8931 14.3547 10.7792 14.4186 10.7154 14.5235C10.6514 14.6286 10.647 14.7596 10.7039 14.8688C11.4746 16.3478 11.4835 17.9749 10.7277 19.221C10.0681 20.3083 8.95256 20.932 7.66701 20.932C6.35369 20.932 5.14514 20.2235 4.51303 19.0829C3.77943 17.7594 3.94426 16.0634 4.96519 14.43C5.02883 14.3282 5.03609 14.2009 4.98447 14.0925C4.93285 13.9841 4.82943 13.9095 4.71031 13.8948C3.19156 13.7065 1.40715 14.1557 0.735427 14.3247C0.632302 14.3507 0.525603 14.3775 0.495896 14.3824C0.304235 14.408 0.169001 14.5836 0.19361 14.7756C0.218278 14.9682 0.394352 15.1044 0.587009 15.0796C0.645603 15.0721 0.722771 15.0529 0.907048 15.0066C1.46304 14.8666 2.82289 14.5246 4.08312 14.5541C3.18623 16.2582 3.11346 18.008 3.89808 19.4237C4.65406 20.7877 6.09822 21.635 7.66701 21.635C9.18154 21.635 10.5505 20.8688 11.3289 19.5855C12.1249 18.2732 12.204 16.6153 11.5665 15.0582C12.7929 15.0567 14.0857 15.0373 15.153 15.0047C14.1946 17.2034 14.788 18.7856 15.2558 19.5628C16.0252 20.841 17.4399 21.635 18.9478 21.635C20.5132 21.635 21.9078 20.8325 22.6782 19.4882C23.4941 18.0647 23.4631 16.2936 22.6085 14.562C24.2967 14.4414 25.726 14.5261 27.4215 14.7008C27.6146 14.7206 27.7874 14.5802 27.8073 14.3871C27.8272 14.1941 27.6867 14.0214 27.4936 14.0015Z" fill="#344154"/>
<path d="M18.9482 19.9542C20.4022 19.9542 21.5853 18.772 21.5853 17.3188C21.5853 16.1002 21.2019 15.4474 20.8637 14.8716C20.5835 14.3944 20.3415 13.9824 20.3107 13.2682C20.1539 9.64114 21.3782 6.49085 22.4329 4.48677C23.5818 2.3035 24.7854 0.966455 24.7973 0.95333C24.9188 0.819678 24.9193 0.615654 24.7984 0.481474C24.6774 0.347236 24.4745 0.326552 24.329 0.433603C22.0972 2.07446 20.5439 4.89763 19.6338 6.977C18.4893 9.59192 17.8715 12.1134 17.6902 13.478C17.6296 13.934 17.4533 14.3865 17.1805 14.7866C16.5791 15.6682 16.31 16.6936 16.31 17.3188C16.3099 18.772 17.4935 19.9542 18.9482 19.9542ZM17.7613 15.1828C18.0958 14.6924 18.3121 14.135 18.3871 13.5706C18.6249 11.7816 19.6046 8.191 21.3373 5.11776C20.3818 7.18483 19.468 10.0547 19.6082 13.2986C19.6466 14.1877 19.9572 14.7164 20.2575 15.2277C20.5787 15.7747 20.8822 16.2914 20.8822 17.3189C20.8822 18.3843 20.0146 19.2512 18.9482 19.2512C17.8812 19.2512 17.0131 18.3843 17.0131 17.3189C17.0131 16.8184 17.2472 15.9365 17.7613 15.1828Z" fill="#344154"/>
</svg>
