<svg width="32" height="25" viewBox="0 0 32 25" fill="none" xmlns="http://www.w3.org/2000/svg">
<path d="M23.462 15.9229C21.6697 15.7193 20.6019 16.8558 20.0148 17.8667C19.4394 18.8611 19.2216 20.0283 19.4915 21.1458C19.8254 22.5214 20.7511 23.3406 21.6224 23.8212C22.7754 24.4581 24.1249 24.6427 25.42 24.4155C28.2137 23.9206 29.7455 21.6264 30.5695 19.5572C31.5094 17.2014 31.7343 14.6137 31.2679 12.1182C30.7589 9.38603 29.5396 7.78555 28.4836 6.87876C27.3969 5.94594 25.9574 5.49136 24.5345 5.65709C23.6774 5.75653 23.024 6.06195 22.5291 6.4455C22.5291 6.4455 21.6058 7.15104 21.5561 8.20461C21.5277 8.84859 21.8236 9.8264 23.3128 9.8264" stroke="#344154" stroke-width="0.710275" stroke-miterlimit="10" stroke-linecap="round"/>
<path d="M17.8011 1L17.9242 6.59697C17.9384 7.16519 18.0757 7.73341 18.3693 8.21876C18.7623 8.86985 19.3092 9.24156 20.01 9.42859" stroke="#344154" stroke-width="0.710275" stroke-miterlimit="10" stroke-linecap="round"/>
<path d="M9.04102 15.9229C10.8333 15.7192 11.9011 16.8557 12.4882 17.8666C13.0635 18.861 13.2814 20.0282 13.0115 21.1457C12.6776 22.5213 11.7519 23.3405 10.8806 23.8211C9.72762 24.458 8.3781 24.6427 7.08303 24.4154C4.28928 23.9206 2.75746 21.624 1.93354 19.5547C0.993608 17.199 0.768687 14.6112 1.2351 12.1158C1.74413 9.38359 2.96344 7.78311 4.01938 6.87632C5.1061 5.94349 6.54559 5.48892 7.96851 5.65465C8.82557 5.75409 9.47903 6.05951 9.97385 6.44305C9.97385 6.44305 10.8972 7.14859 10.9469 8.20217C10.9753 8.84615 10.6794 9.82396 9.19018 9.82396" stroke="#344154" stroke-width="0.710275" stroke-miterlimit="10" stroke-linecap="round"/>
<path d="M14.7043 1L14.5812 6.59697C14.567 7.16519 14.4296 7.73341 14.1361 8.21876C13.743 8.86985 13.1961 9.24156 12.4953 9.42859" stroke="#344154" stroke-width="0.710275" stroke-miterlimit="10" stroke-linecap="round"/>
<path d="M9.04105 15.9228C11.8585 15.9228 13.5963 15.1155 14.6593 14.2229C15.5756 13.4511 16.9298 13.4511 17.8461 14.2229C18.9091 15.1155 20.6469 15.9228 23.4644 15.9228" stroke="#344154" stroke-width="0.710275" stroke-miterlimit="10" stroke-linecap="round"/>
<path d="M23.462 19.5715C22.5907 19.5715 21.7597 19.4057 20.995 19.1074C20.7842 19.6733 20.7393 20.2604 20.8718 20.8097C21.0541 21.565 21.5253 22.1427 22.309 22.5759C23.1447 23.0376 24.1628 23.1939 25.1737 23.0139C26.9494 22.6991 28.3226 21.359 29.2507 19.0293C29.8379 17.5519 30.1173 15.968 30.0794 14.3628C29.3596 17.3507 26.6724 19.5715 23.462 19.5715Z" fill="#FF6D3B"/>
<path d="M9.04102 19.5715C9.91229 19.5715 10.7433 19.4057 11.508 19.1074C11.7188 19.6733 11.7637 20.2604 11.6312 20.8097C11.4488 21.565 10.9777 22.1427 10.194 22.5759C9.35827 23.0376 8.34021 23.1939 7.32925 23.0139C5.55357 22.6991 4.18037 21.359 3.25228 19.0293C2.66511 17.5519 2.38574 15.968 2.42362 14.3628C3.14573 17.3507 5.83294 19.5715 9.04102 19.5715Z" fill="#FF6D3B"/>
<path d="M16.2527 11.884V9.43115" stroke="#344154" stroke-width="0.710275" stroke-miterlimit="10" stroke-linecap="round"/>
</svg>
