<svg width="26" height="31" viewBox="0 0 26 31" fill="none" xmlns="http://www.w3.org/2000/svg">
<path d="M20.7108 29.9511V22.7436C20.7108 22.7436 20.6779 20.0915 22.4161 17.8209C23.0992 16.9306 23.6692 15.9578 24.0154 14.8908C25.0518 11.6993 25.6595 5.44337 18.7912 1.77369C18.7912 1.77369 11.0467 -2.2281 5.12293 3.20341C4.03003 4.2068 3.208 5.48341 2.81937 6.91548C2.5273 7.99425 2.33887 9.4169 2.54379 11.1363C2.56734 11.3342 2.60267 11.5273 2.638 11.7252C2.72044 12.1892 2.84528 13.487 2.02325 14.7353L0.445145 17.0271C0.445145 17.0271 -0.0235759 18.0305 1.1494 18.2425C1.1494 18.2425 1.51213 18.2755 1.78771 18.3932C1.96436 18.4686 2.01854 18.6947 1.8937 18.8408C1.7194 19.0433 1.55924 19.3778 2.05622 19.6487C2.20461 19.7287 2.25879 19.9125 2.17164 20.0585C2.01147 20.3317 1.92197 20.7416 2.60503 20.9441C2.75106 20.9865 2.84528 21.1278 2.81466 21.2762C2.65449 22.1006 2.37185 24.529 4.60239 24.4937L6.44665 24.3147C7.74682 24.1875 8.93864 25.0708 9.16947 26.3568C9.32021 27.1953 9.42385 28.3541 9.42385 29.9535" stroke="#344154" stroke-width="0.706614" stroke-miterlimit="10" stroke-linecap="round"/>
<path d="M10.1988 6.12194L8.94807 4.40723" stroke="#344154" stroke-width="0.706614" stroke-miterlimit="10" stroke-linecap="round"/>
<path d="M9.59344 13.4233L8.30034 14.5751" stroke="#344154" stroke-width="0.706614" stroke-miterlimit="10" stroke-linecap="round"/>
<path d="M18.0233 10.2085H19.9241" stroke="#344154" stroke-width="0.706614" stroke-miterlimit="10" stroke-linecap="round"/>
<path d="M15.3335 6.87567L16.3298 5.35645" stroke="#344154" stroke-width="0.706614" stroke-miterlimit="10" stroke-linecap="round"/>
<path d="M17.4416 12.6133L19.4507 13.9982" stroke="#344154" stroke-width="0.706614" stroke-miterlimit="10" stroke-linecap="round"/>
<path d="M13.2466 15.1875L13.2749 17.0954" stroke="#344154" stroke-width="0.706614" stroke-miterlimit="10" stroke-linecap="round"/>
<path d="M8.27679 10.2085H7.02844" stroke="#344154" stroke-width="0.706614" stroke-miterlimit="10" stroke-linecap="round"/>
<path d="M16.3911 14.2666L18.5462 18.0164C18.5462 18.0164 19.4955 17.6607 19.8087 16.8669L16.3911 14.2666Z" fill="#FF6D3B"/>
<path d="M8.91039 7.60835L6.39485 4.6123C6.39485 4.6123 5.77303 5.26003 5.63641 5.74289L8.91039 7.60835Z" fill="#FF6D3B"/>
<path d="M17.0623 7.96111L20.2398 6.44896C20.2398 6.44896 19.8181 5.76119 19.4271 5.53271L17.0623 7.96111Z" fill="#FF6D3B"/>
<path d="M8.10249 12.0151L5.20773 12.9149C5.20773 12.9149 5.37968 13.6451 5.79187 13.8688L8.10249 12.0151Z" fill="#FF6D3B"/>
<path d="M13.3102 5.26443L13.8826 2.85252C13.8826 2.85252 13.2985 2.6688 12.9687 2.86666L13.3102 5.26443Z" fill="#FF6D3B"/>
<path d="M11.824 14.493C12.6601 12.1235 11.7392 11.351 9.62407 12.6464C11.7392 11.351 11.5296 10.1686 9.12473 9.81762C11.5296 10.1686 12.1302 9.12749 10.5615 7.33034C12.1302 9.12749 13.2608 8.7153 13.2608 6.34814C13.2608 8.71766 14.3914 9.12749 15.96 7.33034C14.3914 9.12749 14.992 10.1686 17.3968 9.81762C14.992 10.1686 14.7823 11.351 16.8975 12.6464C14.7823 11.351 13.8614 12.1235 14.6976 14.493C13.8614 12.1259 12.6601 12.1259 11.824 14.493Z" fill="#FF6D3B"/>
</svg>
