<svg width="30" height="30" viewBox="0 0 30 30" fill="none" xmlns="http://www.w3.org/2000/svg">
<path d="M29.6686 24.1756C29.6186 23.6133 29.1787 23.1856 28.6702 23.2034C27.7211 23.235 26.9225 23.7065 26.4597 24.1647C25.9167 23.7914 24.9249 23.1878 23.6703 22.7636C23.5816 20.1636 22.7603 17.7485 21.4887 15.9508C21.8943 15.3938 22.1859 14.7507 22.3601 14.0239C22.5156 14.0593 22.675 14.0775 22.8349 14.0775C24.0151 14.0775 24.9753 13.1173 24.9753 11.9371C24.9753 10.7569 24.0151 9.79672 22.8349 9.79672C22.627 9.79672 22.4218 9.82683 22.2251 9.88537C21.8865 8.67933 21.2908 7.55674 20.4995 6.62726C20.9974 6.47345 21.3947 6.19115 21.6209 5.78855C22.0064 5.10189 21.8168 4.23172 21.1129 3.46015C21.0672 3.41035 21.0672 3.35322 21.1135 3.30265C21.8168 2.53179 22.0064 1.66162 21.6208 0.97484C21.0229 -0.0893987 19.2303 -0.31516 17.5404 0.460679C17.2249 0.605172 16.7408 0.876754 16.2691 1.22398C15.948 0.891226 15.4979 0.683629 15 0.683629C14.5021 0.683629 14.0521 0.891226 13.7309 1.22398C13.2592 0.876754 12.7752 0.60523 12.46 0.460855C10.7696 -0.31516 8.97709 -0.0894574 8.37908 0.974957C7.99353 1.66162 8.18314 2.53173 8.88715 3.30341C8.93279 3.35322 8.93279 3.41035 8.88644 3.46086C8.18314 4.23166 7.99353 5.10183 8.37914 5.78861C8.60531 6.19115 9.00258 6.47345 9.50039 6.6272C8.70914 7.55668 8.11347 8.67922 7.77486 9.88525C7.5781 9.82672 7.37297 9.7966 7.16508 9.7966C5.98488 9.7966 5.0247 10.7568 5.0247 11.937C5.0247 13.1172 5.98488 14.0773 7.16508 14.0773C7.32498 14.0773 7.48447 14.0592 7.63986 14.0238C7.81418 14.7508 8.1058 15.3939 8.5115 15.9511C8.21162 16.3748 7.9367 16.8314 7.69283 17.3137C7.58332 17.5302 7.6701 17.7946 7.88666 17.9041C7.95023 17.9363 8.01797 17.9515 8.08465 17.9515C8.24513 17.9515 8.39976 17.8633 8.47717 17.7103C8.66871 17.3315 8.88082 16.9705 9.10969 16.6312C9.33433 16.8449 9.58101 17.0415 9.85037 17.2201C9.83115 17.3135 9.81703 17.4078 9.81047 17.5027C9.76676 18.1224 9.98004 18.7184 10.4111 19.1808C10.9819 19.7934 11.8709 20.085 12.7521 19.8946C13.1855 20.6851 14.0583 21.1916 15.0001 21.1916C15.9418 21.1916 16.8146 20.6853 17.248 19.8946C18.1176 20.0828 19.0108 19.8014 19.5891 19.1808C20.0201 18.7184 20.2334 18.1225 20.1897 17.5033C20.1831 17.408 20.169 17.3136 20.1497 17.2202C20.4193 17.0414 20.6661 16.8447 20.8908 16.6309C22.5249 19.0548 23.2461 22.5574 22.5127 25.8931C21.8379 25.2467 20.9375 24.9293 19.9114 24.9816C20.1482 23.6908 20.1207 22.3296 19.8183 21.0014C19.7644 20.7648 19.5289 20.6167 19.2922 20.6705C19.0556 20.7244 18.9074 20.9599 18.9613 21.1965C19.3919 23.0877 19.2138 25.0483 18.4596 26.717C18.3345 26.994 18.2708 27.2833 18.2621 27.5697C16.0954 27.4201 13.9062 27.4201 11.7395 27.5696C11.7302 27.2789 11.6637 26.9899 11.5403 26.7168C11.3494 26.2946 11.1957 25.8536 11.0791 25.3998L11.0784 25.3968C10.7352 24.0583 10.7173 22.6081 11.0386 21.1964C11.0924 20.9598 10.9443 20.7243 10.7077 20.6704C10.4711 20.6166 10.2355 20.7647 10.1817 21.0014C9.87932 22.3296 9.85178 23.6909 10.0886 24.9816C9.06246 24.9293 8.16211 25.2467 7.4874 25.8931C7.09441 24.105 7.10537 22.2119 7.51887 20.3952C7.5842 20.108 7.66031 19.8212 7.7451 19.5426C7.81576 19.3104 7.68474 19.0648 7.45254 18.9942C7.22027 18.9235 6.97482 19.0546 6.90422 19.2867C6.8134 19.5853 6.73183 19.8926 6.66187 20.2C6.46892 21.0477 6.35918 21.9069 6.32994 22.7634C5.07556 23.1874 4.08381 23.791 3.54035 24.1645C3.07693 23.706 2.27865 23.2348 1.33002 23.2032C0.819315 23.1854 0.381443 23.6131 0.331522 24.1756C0.221424 25.4207 0.357186 27.176 0.677283 28.6475C0.777537 29.1089 1.05463 29.4989 1.4574 29.7456C1.73191 29.9137 2.03918 29.9998 2.35183 29.9998C2.49943 29.9998 2.64826 29.9806 2.79533 29.9418C4.40742 29.5172 6.03961 29.1741 7.65199 28.9188C8.0666 29.5159 8.75332 29.8858 9.49617 29.8858C9.81568 29.8858 10.1263 29.8186 10.4193 29.6862C10.9563 29.4436 11.3682 29.0094 11.5833 28.4621C13.8526 28.2947 16.1487 28.2948 18.418 28.4622C18.6245 28.9875 19.0271 29.4362 19.5806 29.6864C19.8733 29.8188 20.184 29.8861 20.5042 29.8861C21.2472 29.8861 21.9339 29.516 22.3481 28.9187C22.8776 29.0023 23.4093 29.0949 23.9329 29.1961C23.961 29.2015 23.989 29.2041 24.0167 29.2041C24.223 29.2041 24.4071 29.0581 24.4477 28.8479C24.4937 28.6096 24.3379 28.3791 24.0996 28.3331C23.6539 28.2471 23.2024 28.167 22.7514 28.0932C23.3088 26.7084 23.6178 25.2154 23.6706 23.6964C24.7607 24.1028 25.6072 24.6383 26.0471 24.9482C26.3551 25.1657 26.7655 25.1227 27.0237 24.8453C27.3511 24.4922 27.9632 24.1062 28.6995 24.0816C28.7193 24.0799 28.7832 24.1408 28.7931 24.253C28.896 25.4171 28.7668 27.0687 28.464 28.4609C28.4151 28.6859 28.28 28.876 28.0837 28.9962C27.8861 29.1172 27.6534 29.1513 27.4283 29.0919C26.9909 28.977 26.5436 28.8655 26.0987 28.7605C25.8623 28.7047 25.6257 28.8511 25.57 29.0872C25.5142 29.3234 25.6605 29.5602 25.8967 29.6159C26.3345 29.7192 26.7746 29.8289 27.2045 29.9418C27.3517 29.9807 27.5006 29.9998 27.6482 29.9998C27.9609 29.9998 28.2682 29.9138 28.5427 29.7457C28.9454 29.499 29.2225 29.109 29.3228 28.6477C29.6429 27.1762 29.7787 25.4209 29.6686 24.1756ZM17.9067 1.25955C18.9844 0.76484 20.4601 0.702965 20.8546 1.40521C21.0455 1.74523 20.8996 2.23308 20.465 2.70951C20.1137 3.09271 20.1137 3.67068 20.4643 4.05318C20.8996 4.53031 21.0455 5.01822 20.8546 5.35812C20.4951 5.99796 18.7346 6.31437 16.7055 4.76837C16.8009 4.40972 16.7508 4.21009 16.7648 3.36863C16.9276 3.34701 17.0743 3.34214 17.2127 3.35351C17.5577 3.38246 17.9619 3.56105 18.0872 3.89498C18.1533 4.07134 18.3208 4.18015 18.4986 4.18015C18.5499 4.18015 18.6022 4.17113 18.653 4.15203C18.8802 4.06677 18.9953 3.81341 18.91 3.58625C18.6811 2.97634 18.0437 2.54129 17.2857 2.47777C17.1183 2.46388 16.9468 2.46599 16.7648 2.48398V2.44841C16.7648 2.29173 16.744 2.13986 16.7055 1.99513C17.1789 1.63431 17.6663 1.36964 17.9067 1.25955ZM16.6845 7.16961C16.4874 7.09168 16.3078 6.98849 16.1572 6.86504C15.9908 6.72886 15.7624 6.6916 15.5612 6.76777C15.3611 6.84365 15.2156 7.02177 15.1816 7.23177C15.1073 7.68429 15.1487 8.16922 15.294 8.61787C14.2334 8.40459 13.3137 7.8725 12.7758 7.14593C12.597 6.904 12.4461 6.64144 12.3237 6.36271C12.8009 6.15927 13.3236 5.83918 13.7308 5.53941C14.052 5.87216 14.502 6.07976 14.9999 6.07976C15.4979 6.07976 15.9479 5.87216 16.2691 5.53941C16.3748 5.61722 16.481 5.69129 16.5858 5.76084C16.5218 6.23046 16.5558 6.71175 16.6845 7.16961ZM15 1.56248C15.4885 1.56248 15.8859 1.95986 15.8859 2.44836V4.31515C15.8859 4.80365 15.4884 5.20103 15 5.20103C14.5115 5.20103 14.1141 4.80365 14.1141 4.31515V2.44836C14.1141 1.95986 14.5115 1.56248 15 1.56248ZM9.14543 5.35818C8.95447 5.01816 9.10037 4.53031 9.53502 4.05388C9.88629 3.67068 9.88629 3.09265 9.53572 2.71027C9.10043 2.23308 8.95447 1.74523 9.14537 1.40533C9.53994 0.702965 11.0156 0.764781 12.0937 1.25978C12.3337 1.3697 12.8211 1.63437 13.2945 1.99507C13.256 2.1398 13.2352 2.29168 13.2352 2.44836V2.48392C13.0532 2.46588 12.8815 2.46377 12.7139 2.47777C11.9563 2.54123 11.3189 2.97634 11.09 3.58625C11.0047 3.81347 11.1198 4.06677 11.347 4.15203C11.3979 4.17113 11.45 4.18015 11.5014 4.18015C11.6793 4.18015 11.8467 4.07134 11.9128 3.89498C12.0381 3.56105 12.4423 3.3824 12.787 3.35351C12.9255 3.34203 13.0723 3.34689 13.2352 3.36851V4.31509C13.2352 4.47177 13.256 4.62365 13.2945 4.76832C11.2659 6.31402 9.50496 5.9982 9.14543 5.35818ZM17.3949 19.0269C17.038 18.938 16.6623 19.1058 16.5016 19.426C16.2311 19.9647 15.6417 20.3128 15 20.3128C14.3583 20.3128 13.7689 19.9647 13.4984 19.426C13.3376 19.1057 12.9621 18.9379 12.6074 19.0262C12.041 19.1642 11.4395 18.9954 11.0539 18.5816C10.8192 18.3298 10.6905 18.0148 10.6844 17.6837C11.8464 18.2212 13.2939 18.494 15 18.494C16.7061 18.494 18.1536 18.2212 19.3156 17.6837C19.3095 18.0145 19.1809 18.3297 18.9461 18.5816C18.5565 18.9997 17.9519 19.1625 17.3949 19.0269ZM15 17.6152C12.2949 17.6152 8.95488 16.8782 8.40545 13.3667C8.38342 13.2259 8.29441 13.1044 8.16662 13.0411C8.03889 12.9777 7.88836 12.9802 7.76279 13.0478C7.57728 13.1479 7.37613 13.1986 7.16508 13.1986C6.46951 13.1986 5.90361 12.6327 5.90361 11.937C5.90361 11.2415 6.46951 10.6755 7.16508 10.6755C7.40443 10.6755 7.63769 10.7432 7.83955 10.8713C7.9609 10.9484 8.11225 10.9612 8.24484 10.9056C8.37744 10.85 8.47447 10.7332 8.50465 10.5927C8.81912 9.12968 9.55195 7.7767 10.5738 6.76179C10.8671 6.75371 11.1738 6.71298 11.4855 6.63927C11.6395 7.0066 11.8348 7.35166 12.0693 7.66871C12.8306 8.69703 14.1802 9.40595 15.6788 9.56498C15.7004 9.56732 15.722 9.56849 15.7435 9.56849C15.9405 9.56849 16.1258 9.47158 16.238 9.30617C16.3641 9.12049 16.3771 8.8816 16.2714 8.68138C16.1324 8.42052 16.0496 8.12633 16.029 7.83289C16.3312 7.99759 16.671 8.11267 17.0323 8.17132C17.2525 8.20777 17.4733 8.11982 17.6087 7.94199C17.7441 7.76416 17.7699 7.52785 17.6758 7.32453C17.5186 6.98662 17.4371 6.61929 17.4335 6.25197C18.0445 6.55086 18.7431 6.74298 19.4261 6.76185C20.4479 7.77681 21.1808 9.1298 21.4952 10.5928C21.5255 10.7333 21.6225 10.8502 21.755 10.9057C21.8876 10.9613 22.039 10.9484 22.1603 10.8714C22.3622 10.7434 22.5954 10.6756 22.8348 10.6756C23.5304 10.6756 24.0963 11.2415 24.0963 11.9371C24.0963 12.6327 23.5304 13.1987 22.8348 13.1987C22.6237 13.1987 22.4226 13.148 22.2371 13.048C22.1115 12.9803 21.9609 12.9778 21.8333 13.0412C21.7055 13.1046 21.6165 13.226 21.5944 13.3668C21.0451 16.8781 17.7051 17.6152 15 17.6152ZM2.57127 29.0921C2.34656 29.1513 2.11394 29.1173 1.91631 28.9962C1.71996 28.876 1.5849 28.6859 1.53597 28.4609C1.2331 27.0689 1.1039 25.4172 1.20685 24.2533C1.21676 24.1415 1.28033 24.0818 1.30025 24.0818C2.03654 24.1063 2.6489 24.4923 2.97679 24.8461C3.23437 25.1228 3.64488 25.1659 3.95238 24.9486C4.39271 24.6384 5.23928 24.1028 6.32947 23.6964C6.38221 25.2154 6.69111 26.7085 7.24834 28.0933C5.69379 28.3484 4.12324 28.6834 2.57127 29.0921ZM9.49611 29.0071C8.96021 29.0071 8.47137 28.6917 8.25076 28.2036C8.06244 27.7869 7.89967 27.3579 7.76162 26.9199C8.4842 25.8835 9.56865 25.7948 10.3001 25.882C10.4185 26.2924 10.5648 26.6927 10.7394 27.0789C11.1455 27.9776 10.4903 29.0071 9.49611 29.0071ZM20.5041 29.0073C19.519 29.0073 18.852 27.9834 19.2605 27.0789C19.435 26.6927 19.5813 26.2924 19.6997 25.882C20.4311 25.7947 21.5156 25.8833 22.2383 26.9197C22.1001 27.3578 21.9373 27.7869 21.7488 28.2038C21.5286 28.6919 21.04 29.0073 20.5041 29.0073Z" fill="#344154"/>
<path d="M12.1686 10.4004C11.9259 10.4004 11.7291 10.5971 11.7291 10.8398V11.0972C11.7291 11.3399 11.9259 11.5367 12.1686 11.5367C12.4113 11.5367 12.608 11.3399 12.608 11.0972V10.8398C12.608 10.5971 12.4113 10.4004 12.1686 10.4004Z" fill="#344154"/>
<path d="M17.8314 10.4004C17.5887 10.4004 17.392 10.5971 17.392 10.8398V11.0972C17.392 11.3399 17.5887 11.5367 17.8314 11.5367C18.0741 11.5367 18.2709 11.3399 18.2709 11.0972V10.8398C18.2709 10.5971 18.0741 10.4004 17.8314 10.4004Z" fill="#344154"/>
<path d="M16.1909 13.2922C15.8692 13.6197 15.4463 13.8001 15 13.8001C14.5538 13.8001 14.1308 13.6197 13.8091 13.2922C13.6392 13.1191 13.3609 13.1165 13.1877 13.2866C13.0146 13.4566 13.012 13.7349 13.1821 13.908C13.6704 14.4051 14.316 14.679 14.9999 14.679C15.6839 14.679 16.3296 14.4051 16.8178 13.908C16.9879 13.7349 16.9853 13.4567 16.8122 13.2866C16.6392 13.1165 16.3609 13.119 16.1909 13.2922Z" fill="#344154"/>
</svg>
