<svg width="22" height="31" viewBox="0 0 22 31" fill="none" xmlns="http://www.w3.org/2000/svg">
<path d="M15.4746 3.52783C15.4555 4.19918 15.2951 5.81608 16.054 6.98857C17.2726 8.87023 19.9086 13.1063 20.6053 14.1984C20.8136 14.5247 20.9549 14.8887 20.9908 15.2716C21.0506 15.9099 20.8471 16.7514 19.5303 17.1013C17.3301 17.6875 16.9638 18.9546 17.129 19.8458C17.2942 20.737 17.864 22.2073 16.3748 22.9165" stroke="#344154" stroke-width="0.946809" stroke-miterlimit="10" stroke-linecap="round" stroke-linejoin="round"/>
<path d="M12.7692 23.6964C12.7692 23.6964 14.4164 22.8691 15.6877 22.8667C16.6693 22.8643 17.299 23.9257 16.7435 24.7247C16.7388 24.7318 16.7316 24.7413 16.7268 24.7484C16.7268 24.7484 16.5807 24.9635 16.4203 25.3015C16.0875 26.0083 16.0468 26.8073 16.2408 27.5638C16.485 28.5117 16.4155 30.2184 12.7692 30.2184H10.6169" stroke="#344154" stroke-width="0.946809" stroke-miterlimit="10" stroke-linecap="round" stroke-linejoin="round"/>
<path d="M15.5824 0.473633C15.5824 0.473633 19.4681 5.2156 6.71202 5.47799C5.49818 5.50399 4.31786 5.63637 3.33864 5.99568C1.76329 6.57247 0.250178 7.77097 1.40895 10.2341" stroke="#344154" stroke-width="0.946809" stroke-miterlimit="10" stroke-linecap="round" stroke-linejoin="round"/>
<path d="M5.93152 30.4736C6.68568 27.4148 6.82215 23.6254 6.8006 20.9424C6.78623 19.0277 8.28977 17.4368 10.2242 17.3091L13.5449 17.0893C13.5449 17.0893 16.9351 17.0396 17.8927 14.853" stroke="#344154" stroke-width="0.946809" stroke-miterlimit="10" stroke-linecap="round" stroke-linejoin="round"/>
<path d="M2.43124 30.4737C3.4751 27.8994 3.53256 24.6113 3.52777 21.6729C3.52059 17.5929 6.89635 14.2905 11.0311 14.2905H13.0661C13.0661 14.2905 15.58 14.3307 15.9798 12.8154" stroke="#344154" stroke-width="0.946809" stroke-miterlimit="10" stroke-linecap="round" stroke-linejoin="round"/>
<path d="M13.0852 12.6949C13.4492 12.6949 13.8131 12.6547 14.165 12.5743C14.2895 12.5459 14.347 12.4632 14.3757 12.3994C14.4044 12.3355 14.4236 12.2363 14.3589 12.1275C12.92 9.69035 11.5266 7.36192 11.5195 7.3501C11.5195 7.3501 11.5266 7.37374 11.5338 7.41865C11.6272 8.01435 11.8786 10.6785 10.3511 11.1205C9.23782 11.4396 7.55234 11.9526 6.53003 13.5931H6.53482C7.84682 13.0045 9.28092 12.6925 10.7629 12.6925H13.0852V12.6949Z" fill="#FF6D3B"/>
<path d="M14.845 28.3579C14.9096 28.2752 14.8905 28.0743 14.8474 27.9135C14.6702 27.2256 14.6415 26.5236 14.7564 25.8569C14.7564 25.8569 13.6431 27.8639 10.6145 28.7976H12.7669C14.1339 28.8 14.7157 28.5234 14.845 28.3579Z" fill="#FF6D3B"/>
</svg>
