<svg width="32" height="31" viewBox="0 0 32 31" fill="none" xmlns="http://www.w3.org/2000/svg">
<path d="M26.7956 29.6482V22.5152C26.7956 22.5152 26.7631 19.8882 28.4671 17.6435C29.1358 16.7615 29.6953 15.7998 30.0342 14.7443C31.0488 11.5848 31.6454 5.39249 24.915 1.75918C24.915 1.75918 17.3257 -2.20251 11.5239 3.17357C10.4513 4.16575 9.64806 5.43002 9.26732 6.8491C8.98176 7.91634 8.79603 9.32369 8.99801 11.0266C9.02123 11.2213 9.05605 11.4136 9.08855 11.6083C9.16749 12.068 9.29053 13.3511 8.48725 14.5872L6.94105 16.8577C6.94105 16.8577 6.48137 17.8499 7.63057 18.061C7.63057 18.061 7.98578 18.0938 8.25741 18.2111C8.42921 18.2862 8.48261 18.509 8.35956 18.6521C8.18776 18.8538 8.03221 19.1845 8.51975 19.4519C8.66602 19.5317 8.71709 19.7123 8.63351 19.8577C8.47797 20.1274 8.38974 20.5332 9.05837 20.7326C9.19999 20.7748 9.29285 20.9132 9.26499 21.061C9.10712 21.8772 8.83085 24.2815 11.0178 24.2463L12.824 24.068C14.0963 23.9414 15.2664 24.8163 15.4916 26.0899C15.6378 26.9202 15.74 28.0672 15.74 29.6505" stroke="#344154" stroke-width="0.703675" stroke-miterlimit="10" stroke-linecap="round"/>
<path d="M10.8019 3.93115C9.09088 8.58948 16.9333 10.1751 18.7488 10.4472C23.4594 11.1555 29.9112 13.5246 28.3998 17.7349" stroke="#344154" stroke-width="0.703675" stroke-miterlimit="10" stroke-linecap="round"/>
<path d="M12.2808 5.96468C13.1444 7.44005 16.3181 8.53309 18.9229 8.93184C19.5451 9.01159 20.1697 9.07023 20.7965 9.1101C22.6097 9.23207 24.5041 9.75514 24.5041 9.75514C24.1071 8.65506 22.7443 7.76609 22.7443 7.76609C25.5721 7.95608 26.6841 10.1164 26.6841 10.1164C26.5588 8.29619 25.0497 6.34935 25.0497 6.34935C28.9477 8.06397 28.8711 13.2712 28.8711 13.2712C29.4654 10.6418 29.3261 6.18985 23.9609 3.29306C23.8123 3.218 21.4953 2.05225 18.6072 2.05225C16.6013 2.05225 14.3215 2.61284 12.2994 4.48696C12.2529 4.53153 12.2111 4.57844 12.1647 4.623C11.9674 5.28211 12.1183 5.68555 12.2808 5.96468Z" fill="#FF6D3B"/>
<path d="M5.61308 20.5986L2.52997 21.5814" stroke="#344154" stroke-width="0.703675" stroke-miterlimit="10" stroke-linecap="round"/>
<path d="M5.14413 19.0977L2.8434 19.297" stroke="#344154" stroke-width="0.703675" stroke-miterlimit="10" stroke-linecap="round"/>
<path d="M6.08206 22.0977L4.08546 23.2704" stroke="#344154" stroke-width="0.703675" stroke-miterlimit="10" stroke-linecap="round"/>
<path d="M2.33496 23.2168L1.34827 23.6883" stroke="#344154" stroke-width="0.703675" stroke-miterlimit="10" stroke-linecap="round"/>
<path d="M6.91784 23.5708L5.68274 24.5348" stroke="#344154" stroke-width="0.703675" stroke-miterlimit="10" stroke-linecap="round"/>
</svg>
