<svg width="26" height="30" viewBox="0 0 26 30" fill="none" xmlns="http://www.w3.org/2000/svg">
<path d="M23.3886 14.5142C23.3886 14.5142 20.1736 17.6466 12.8504 17.6466C5.52951 17.6466 2.31219 14.5142 2.31219 14.5142" stroke="#344154" stroke-width="0.707102" stroke-miterlimit="10" stroke-linecap="round" stroke-linejoin="round"/>
<path d="M1.72296 17.3545C6.25313 20.3479 8.73035 20.0816 12.082 24.204C12.28 24.4467 12.5699 24.5622 12.8645 24.5599C13.1592 24.5622 13.4491 24.4491 13.6471 24.204C16.9987 20.0816 19.4736 20.3479 24.0061 17.3545" stroke="#344154" stroke-width="0.707102" stroke-miterlimit="10" stroke-linecap="round" stroke-linejoin="round"/>
<path d="M12.8504 24.5596V29.646" stroke="#344154" stroke-width="0.707102" stroke-miterlimit="10" stroke-linecap="round" stroke-linejoin="round"/>
<path d="M4.12474 10.2524C3.8749 10.9572 3.56142 11.6926 3.17251 12.4539C2.09771 14.5587 1.46368 16.8686 1.45189 19.2303C1.44011 22.0516 2.03172 25.771 4.35808 29.6459" stroke="#344154" stroke-width="0.707102" stroke-miterlimit="10" stroke-linecap="round" stroke-linejoin="round"/>
<path d="M3.76413 0.353027C3.76413 0.353027 5.81237 3.53499 4.6103 8.60963" stroke="#344154" stroke-width="0.707102" stroke-miterlimit="10" stroke-linecap="round" stroke-linejoin="round"/>
<path d="M8.04915 11.066C3.53548 10.4791 0.353516 9.07437 0.353516 7.43153C0.353516 6.39209 1.63101 5.44458 3.71697 4.74219" stroke="#344154" stroke-width="0.707102" stroke-miterlimit="10" stroke-linecap="round" stroke-linejoin="round"/>
<path d="M8.77746 9.31445L10.2129 11.3863L8.27777 12.916" stroke="#344154" stroke-width="0.707102" stroke-miterlimit="10" stroke-linecap="round" stroke-linejoin="round"/>
<path d="M21.576 10.2529C21.8259 10.9577 22.1394 11.6931 22.5283 12.4544C23.6031 14.5592 24.2371 16.8691 24.2465 19.2308C24.2583 22.0521 23.6667 25.7715 21.3403 29.6464" stroke="#344154" stroke-width="0.707102" stroke-miterlimit="10" stroke-linecap="round" stroke-linejoin="round"/>
<path d="M21.9367 0.353516C21.9367 0.353516 19.8884 3.53548 21.0905 8.61011" stroke="#344154" stroke-width="0.707102" stroke-miterlimit="10" stroke-linecap="round" stroke-linejoin="round"/>
<path d="M17.6516 11.0665C22.1676 10.4796 25.3472 9.07486 25.3472 7.43202C25.3472 6.39258 24.0697 5.44506 21.9838 4.74268" stroke="#344154" stroke-width="0.707102" stroke-miterlimit="10" stroke-linecap="round" stroke-linejoin="round"/>
<path d="M16.9233 9.31494L15.4879 11.3868L17.423 12.9164" stroke="#344154" stroke-width="0.707102" stroke-miterlimit="10" stroke-linecap="round" stroke-linejoin="round"/>
<path d="M12.8621 18.8936C10.0526 18.8913 7.79222 18.4458 6.0386 17.873C6.65143 18.3633 7.60837 18.9172 8.15756 19.2213C8.29426 19.292 8.42861 19.365 8.56296 19.4405C8.5771 19.4475 8.58417 19.4522 8.58417 19.4522L8.57946 19.4499C9.98659 20.2324 11.3513 21.2271 12.8598 22.9995C14.3683 21.2271 15.733 20.2324 17.1401 19.4499L17.1354 19.4522C17.1354 19.4522 17.1448 19.4475 17.1566 19.4405C17.291 19.365 17.4277 19.292 17.562 19.2213C18.1112 18.9172 19.0681 18.3633 19.681 17.873C17.9344 18.4458 15.6717 18.8913 12.8621 18.8936Z" fill="#FF6D3B"/>
</svg>
