<svg width="16" height="16" viewBox="0 0 16 16" fill="none" xmlns="http://www.w3.org/2000/svg">
<g clip-path="url(#clip0_58_116)">
<path d="M13.2767 8.68501C13.018 8.35834 13.092 8.21301 13.2767 7.92101C13.28 7.91768 15.4153 4.96701 15.6353 3.96634L15.6367 3.96567C15.746 3.60101 15.6367 3.33301 15.108 3.33301H13.3587C12.9133 3.33301 12.708 3.56301 12.598 3.82034C12.598 3.82034 11.7073 5.95234 10.4473 7.33434C10.0407 7.73368 9.85267 7.86168 9.63067 7.86168C9.52133 7.86168 9.35133 7.73368 9.35133 7.36901V3.96567C9.35133 3.52834 9.22667 3.33301 8.858 3.33301H6.10733C5.828 3.33301 5.662 3.53701 5.662 3.72701C5.662 4.14167 6.292 4.23701 6.35733 5.40368V7.93501C6.35733 8.48968 6.25667 8.59168 6.03333 8.59168C5.43867 8.59168 3.99533 6.45101 3.14 4.00101C2.96733 3.52567 2.79867 3.33367 2.35 3.33367H0.6C0.100667 3.33367 0 3.56367 0 3.82101C0 4.27567 0.594667 6.53634 2.76533 9.52301C4.212 11.5617 6.24933 12.6663 8.10267 12.6663C9.21667 12.6663 9.35267 12.421 9.35267 11.999C9.35267 10.051 9.252 9.86701 9.81 9.86701C10.0687 9.86701 10.514 9.99501 11.554 10.9783C12.7427 12.1443 12.938 12.6663 13.6033 12.6663H15.3527C15.8513 12.6663 16.104 12.421 15.9587 11.937C15.626 10.919 13.378 8.82501 13.2767 8.68501Z" fill="white"/>
</g>
<defs>
<clipPath id="clip0_58_116">
<rect width="16" height="16" fill="white"/>
</clipPath>
</defs>
</svg>
