<svg width="16" height="16" viewBox="0 0 16 16" fill="none" xmlns="http://www.w3.org/2000/svg">
<path d="M8.00052 16L7.99569 15.9992H7.98281C5.4209 15.9992 3.78408 14.7805 3.62306 14.7102L0.603843 15.4986L1.41299 12.551L1.22057 12.2477C0.423495 10.9733 0 9.50551 0 7.99409C0 0.883392 8.65106 -2.67236 13.6573 2.35357C18.6515 7.32693 15.1452 16 8.00052 16Z" fill="white"/>
<path d="M12.1952 9.95857L12.1882 10.021C11.9569 9.8961 10.8302 9.2989 10.6204 9.21644C10.1493 9.02737 10.2822 9.18646 9.37765 10.3092C9.24315 10.4717 9.10943 10.4841 8.88117 10.3717C8.6506 10.2468 7.91048 9.98439 7.03433 9.13481C6.35186 8.47264 5.8938 7.66055 5.75854 7.41067C5.53335 6.98922 6.00447 6.92925 6.43333 6.04968C6.51018 5.87477 6.47099 5.73734 6.41411 5.61323C6.35647 5.4883 5.89765 4.2639 5.70551 3.77581C5.52105 3.28939 5.33122 3.35102 5.18904 3.35102C4.74635 3.30938 4.42279 3.31604 4.13766 3.63755C2.89722 5.11515 3.21002 6.63939 4.27139 8.26025C6.35724 11.2188 7.46857 11.7635 9.50062 12.5198C10.0494 12.7089 10.5497 12.6822 10.9455 12.6206C11.3866 12.5448 12.3035 12.02 12.4949 11.4328C12.6909 10.8456 12.6909 10.3584 12.6332 10.2459C12.5764 10.1335 12.4257 10.071 12.1952 9.95857Z" fill="#9CA3AF"/>
</svg>
