<?xml version="1.0" encoding="utf-8"?><svg viewBox="0 0 24 24" xmlns="http://www.w3.org/2000/svg" xmlns:xlink="http://www.w3.org/1999/xlink"><style>:root>svg{display:none}:root>svg:target{display:block}</style><svg fill="none" viewBox="0 0 19 12" id="eye" xmlns="http://www.w3.org/2000/svg"><path d="M9.5 0C5.87 0 2.578 1.986.149 5.212a.752.752 0 000 .898c2.429 3.23 5.72 5.216 9.351 5.216 3.63 0 6.922-1.986 9.351-5.212a.752.752 0 000-.898C16.422 1.986 13.131 0 9.5 0zm.26 9.65a3.999 3.999 0 01-4.248-4.248A4.005 4.005 0 019.24 1.675a3.999 3.999 0 014.248 4.248A4.018 4.018 0 019.76 9.651zm-.12-1.842a2.148 2.148 0 01-2.285-2.285 2.16 2.16 0 012.009-2.01A2.148 2.148 0 0111.649 5.8a2.16 2.16 0 01-2.01 2.01z" fill="#FF6D3B" opacity=".5"/></svg><svg fill="none" viewBox="0 0 18 18" id="phone" xmlns="http://www.w3.org/2000/svg"><path d="M16.895 12.71c-.03-.026-3.399-2.437-4.313-2.278-.44.077-.69.376-1.194.977-.081.096-.276.328-.427.492A7.706 7.706 0 016.099 7.04c.165-.151.397-.346.496-.43.597-.5.896-.752.973-1.192.16-.91-2.252-4.282-2.277-4.312a1.288 1.288 0 00-.96-.542c-.977 0-3.769 3.62-3.769 4.23 0 .035.052 3.638 4.494 8.156 4.513 4.437 8.116 4.489 8.15 4.489.611 0 4.232-2.792 4.232-3.77a1.287 1.287 0 00-.543-.959zm-3.75 3.6c-.492-.041-3.514-.44-7.294-4.153-3.732-3.8-4.12-6.831-4.16-7.3A15.218 15.218 0 014.34 1.727c.022.022.052.056.09.1a19.908 19.908 0 012.01 3.41c-.18.182-.37.353-.571.513-.31.236-.595.505-.85.8l-.137.191.04.231c.12.516.302 1.015.543 1.486a8.837 8.837 0 004.077 4.076c.471.242.97.425 1.486.544l.23.04.192-.136c.297-.257.566-.543.803-.854.176-.21.412-.491.501-.57a19.77 19.77 0 013.419 2.012c.047.04.08.07.101.09a15.204 15.204 0 01-3.128 2.647v.001z" fill="#45B553"/></svg><svg fill="none" viewBox="0 0 24 24" id="search" xmlns="http://www.w3.org/2000/svg"><path d="M23.854 22.44l-6.972-6.972A9.451 9.451 0 0019 9.5C19 4.262 14.738 0 9.5 0S0 4.262 0 9.5 4.262 19 9.5 19c2.26 0 4.335-.796 5.968-2.118l6.971 6.972a.5.5 0 00.708 0l.707-.707a.5.5 0 000-.707zM9.5 17C5.364 17 2 13.636 2 9.5S5.364 2 9.5 2 17 5.364 17 9.5 13.636 17 9.5 17z" fill="#111827"/></svg><svg fill="none" viewBox="0 0 20 20" id="virus" xmlns="http://www.w3.org/2000/svg"><path d="M11.345 20h-2.69c-.416 0-.79-.23-.975-.603a1.084 1.084 0 01.103-1.14l.454-.606v-.56a7.193 7.193 0 01-2.004-.831l-.397.397-.106.748c-.059.412-.34.75-.734.88-.395.132-.822.031-1.116-.263L1.978 16.12a1.084 1.084 0 01-.264-1.116c.132-.394.47-.675.88-.734l.75-.106.396-.397a7.194 7.194 0 01-.83-2.004h-.561l-.605.454c-.332.25-.77.289-1.141.103A1.084 1.084 0 010 11.345v-2.69c0-.416.23-.79.603-.975.371-.186.809-.146 1.141.103l.605.454h.56a7.195 7.195 0 01.831-2.004l-.397-.397-.748-.106a1.084 1.084 0 01-.88-.734 1.084 1.084 0 01.263-1.116L3.88 1.978a1.084 1.084 0 011.116-.264c.394.132.675.47.734.88l.106.75.397.396a7.194 7.194 0 012.004-.83v-.561l-.454-.605c-.25-.332-.289-.77-.103-1.141C7.866.23 8.24 0 8.655 0h2.69c.416 0 .79.23.975.603.186.371.146.809-.103 1.141l-.454.605v.56a7.195 7.195 0 012.004.831l.397-.397.106-.748c.059-.412.34-.75.734-.88.395-.132.822-.031 1.116.263l1.902 1.902c.294.294.395.721.264 1.116a1.084 1.084 0 01-.88.734l-.75.106-.396.397c.378.626.656 1.297.83 2.004h.561l.605-.454c.332-.25.77-.289 1.141-.103.372.186.603.56.603.975v2.69c0 .416-.23.79-.603.975a1.084 1.084 0 01-1.14-.103l-.606-.454h-.56a7.192 7.192 0 01-.831 2.004l.397.397.748.106c.412.059.75.34.88.734.132.395.031.822-.263 1.116l-1.902 1.902a1.084 1.084 0 01-1.116.264 1.084 1.084 0 01-.734-.88l-.106-.75-.397-.396a7.195 7.195 0 01-2.004.83v.561l.454.605c.25.332.289.77.103 1.141-.186.372-.56.603-.975.603zM8.82 18.828h2.362l-.372-.495a1.096 1.096 0 01-.218-.654v-1.063c0-.284.204-.528.484-.577a6.06 6.06 0 002.435-1.01.586.586 0 01.75.066l.752.752c.166.166.275.385.308.617l.087.613 1.67-1.67-.613-.087a1.096 1.096 0 01-.617-.308l-.752-.752a.586.586 0 01-.066-.75 6.058 6.058 0 001.01-2.435.586.586 0 01.577-.484h1.063c.234 0 .466.077.654.218l.495.372V8.819l-.495.372c-.188.14-.42.218-.654.218h-1.063a.586.586 0 01-.577-.484 6.06 6.06 0 00-1.01-2.435.586.586 0 01.066-.75l.752-.752c.166-.166.385-.275.617-.308l.613-.087-1.67-1.67-.087.613a1.096 1.096 0 01-.308.617l-.752.752a.586.586 0 01-.75.066 6.057 6.057 0 00-2.435-1.01.586.586 0 01-.484-.577V2.321c0-.234.077-.466.218-.654l.372-.495H8.819l.372.495c.14.188.218.42.218.654v1.063a.586.586 0 01-.484.577c-.88.156-1.7.495-2.435 1.01a.586.586 0 01-.75-.066l-.752-.752a1.097 1.097 0 01-.308-.617l-.087-.613-1.67 1.67.613.087c.232.033.45.142.617.308l.752.752a.586.586 0 01.066.75 6.059 6.059 0 00-1.01 2.435.586.586 0 01-.577.484H2.321c-.234 0-.466-.077-.654-.218l-.495-.372v2.362l.495-.372c.188-.14.42-.218.654-.218h1.063c.284 0 .528.204.577.484.156.88.495 1.7 1.01 2.435a.586.586 0 01-.066.75l-.752.752a1.097 1.097 0 01-.617.308l-.613.087 1.67 1.67.087-.613c.033-.232.142-.45.308-.617l.752-.752a.586.586 0 01.75-.066 6.06 6.06 0 002.435 1.01c.28.05.484.293.484.577v1.063c0 .234-.077.466-.218.654l-.372.495z" fill="#FF6D3B"/><path d="M8.037 10.388a2.354 2.354 0 01-2.351-2.35 2.354 2.354 0 012.351-2.352 2.354 2.354 0 012.351 2.351 2.354 2.354 0 01-2.35 2.351zm0-3.53a1.18 1.18 0 000 2.358c.65 0 1.18-.529 1.18-1.179s-.53-1.18-1.18-1.18zM12.354 14.116c-.972 0-1.763-.79-1.763-1.762s.79-1.763 1.763-1.763c.972 0 1.762.79 1.762 1.763 0 .972-.79 1.762-1.762 1.762zm0-2.353a.591.591 0 100 1.183.591.591 0 000-1.183zM7.773 13.79c.307 0 .6-.27.586-.587-.014-.317-.257-.586-.586-.586-.306 0-.6.27-.585.586.014.318.257.586.585.586zM13.71 9.844c.307 0 .601-.27.587-.586-.014-.318-.258-.586-.586-.586-.306 0-.6.27-.586.586.014.317.258.586.586.586zM11.836 7.07c.306 0 .6-.27.586-.586-.014-.317-.258-.586-.586-.586-.306 0-.6.27-.586.586.014.318.258.586.586.586z" fill="#FF6D3B"/></svg></svg>