<?xml version="1.0" encoding="utf-8"?><svg viewBox="0 0 32 32" xmlns="http://www.w3.org/2000/svg" xmlns:xlink="http://www.w3.org/1999/xlink"><style>:root>svg{display:none}:root>svg:target{display:block}</style><svg fill="none" viewBox="0 0 12 12" id="ellipse" xmlns="http://www.w3.org/2000/svg"><circle opacity=".5" cx="6" cy="6" r="4.5" stroke="#45B553" stroke-width="3"/></svg><svg fill="none" viewBox="0 0 19 12" id="eye" xmlns="http://www.w3.org/2000/svg"><path d="M9.5 0C5.87 0 2.578 1.986.149 5.212a.752.752 0 000 .898c2.429 3.23 5.72 5.216 9.351 5.216 3.63 0 6.922-1.986 9.351-5.212a.752.752 0 000-.898C16.422 1.986 13.131 0 9.5 0zm.26 9.65a3.999 3.999 0 01-4.248-4.248A4.005 4.005 0 019.24 1.675a3.999 3.999 0 014.248 4.248A4.018 4.018 0 019.76 9.651zm-.12-1.842a2.148 2.148 0 01-2.285-2.285 2.16 2.16 0 012.009-2.01A2.148 2.148 0 0111.649 5.8a2.16 2.16 0 01-2.01 2.01z" fill="#FF6D3B" opacity=".5"/></svg><svg fill="none" viewBox="0 0 18 18" id="phone" xmlns="http://www.w3.org/2000/svg"><path d="M16.895 12.71c-.03-.026-3.399-2.437-4.313-2.278-.44.077-.69.376-1.194.977-.081.096-.276.328-.427.492A7.706 7.706 0 016.099 7.04c.165-.151.397-.346.496-.43.597-.5.896-.752.973-1.192.16-.91-2.252-4.282-2.277-4.312a1.288 1.288 0 00-.96-.542c-.977 0-3.769 3.62-3.769 4.23 0 .035.052 3.638 4.494 8.156 4.513 4.437 8.116 4.489 8.15 4.489.611 0 4.232-2.792 4.232-3.77a1.287 1.287 0 00-.543-.959zm-3.75 3.6c-.492-.041-3.514-.44-7.294-4.153-3.732-3.8-4.12-6.831-4.16-7.3A15.218 15.218 0 014.34 1.727c.022.022.052.056.09.1a19.908 19.908 0 012.01 3.41c-.18.182-.37.353-.571.513-.31.236-.595.505-.85.8l-.137.191.04.231c.12.516.302 1.015.543 1.486a8.837 8.837 0 004.077 4.076c.471.242.97.425 1.486.544l.23.04.192-.136c.297-.257.566-.543.803-.854.176-.21.412-.491.501-.57a19.77 19.77 0 013.419 2.012c.047.04.08.07.101.09a15.204 15.204 0 01-3.128 2.647v.001z" fill="#45B553"/></svg><svg fill="none" viewBox="0 0 24 24" id="search" xmlns="http://www.w3.org/2000/svg"><path d="M23.854 22.44l-6.972-6.972A9.451 9.451 0 0019 9.5C19 4.262 14.738 0 9.5 0S0 4.262 0 9.5 4.262 19 9.5 19c2.26 0 4.335-.796 5.968-2.118l6.971 6.972a.5.5 0 00.708 0l.707-.707a.5.5 0 000-.707zM9.5 17C5.364 17 2 13.636 2 9.5S5.364 2 9.5 2 17 5.364 17 9.5 13.636 17 9.5 17z" fill="#111827"/></svg><svg fill="none" viewBox="0 0 32 32" id="specialization_akusher-ginekolog" xmlns="http://www.w3.org/2000/svg"><path d="M24.943 3.599c-1.02 1.219-1.108 2.823-.199 3.586.912.762 2.474.39 3.494-.829 1.02-1.219 1.108-2.823.199-3.586-.912-.762-2.476-.39-3.494.829z" stroke="#344154" stroke-width=".841" stroke-miterlimit="10"/><path d="M25.954 4.61c-.246.326-.398.695-.414 1.029-.012.208.033.383.118.454.052.043.133.064.239.064.303 0 .812-.187 1.252-.714.175-.211.296-.424.376-.623-.572.142-1.13.078-1.571-.21z" fill="#FF6D3B"/><path d="M13.213 5.289l.078-.079c.53-.527 1.621-1.41 2.973-1.41 1.351 0 2.44.885 2.97 1.41" stroke="#344154" stroke-width=".841" stroke-miterlimit="10" stroke-linecap="round"/><path d="M29.258 1.762c.717-.705 1.692-.454 2.007.44.509 1.449.502 4.668-2.222 6.902-.836.686-1.922.996-3 1.103-1.696.166-4.59-.062-7.426-2.668-.133-.12-.258-.25-.386-.376-.296-.293-1.096-.999-1.97-.999-.873 0-1.675.706-1.969 1-.127.125-.253.255-.386.375-2.835 2.606-5.727 2.836-7.427 2.668C5.402 10.1 4.316 9.79 3.48 9.104.76 6.87.75 3.651 1.26 2.202c.315-.894 1.29-1.145 2.007-.44" stroke="#344154" stroke-width=".841" stroke-miterlimit="10" stroke-linecap="round"/><path d="M7.78 7.182c.91-.761.822-2.366-.197-3.584C6.563 2.38 5 2.01 4.089 2.77c-.91.762-.822 2.366.197 3.585 1.019 1.218 2.583 1.588 3.493.826z" stroke="#344154" stroke-width=".841" stroke-miterlimit="10"/><path d="M6.572 4.61c.246.326.397.695.414 1.029.012.208-.033.383-.119.454-.052.043-.132.064-.239.064-.303 0-.811-.187-1.252-.714A2.36 2.36 0 015 4.82c.57.142 1.131.078 1.572-.21z" fill="#FF6D3B"/><path d="M9.27 10.037s1.922.333 2.355 4.532c.087.855.303 1.7.677 2.473.215.448.502.916.873 1.343 0 0-.582 3.718.563 5.256l-.146.178a2.233 2.233 0 00-.41 2.073l1.463 4.753h1.617M23.256 10.037s-1.922.333-2.355 4.532a7.426 7.426 0 01-.677 2.473 6.017 6.017 0 01-.874 1.343s.582 3.718-.563 5.256l.147.178c.475.58.63 1.358.41 2.073l-1.463 4.753h-1.617" stroke="#344154" stroke-width=".841" stroke-miterlimit="10" stroke-linecap="round"/><path d="M13.092 14.808a9.476 9.476 0 016.855-2.923l.068.002c.17-.501.365-.932.575-1.292a12.068 12.068 0 01-2.932-2.01c-.118-.108-.232-.222-.348-.335l-.078-.079c-.383-.38-.786-.587-.97-.587-.185 0-.587.206-.969.585l-.073.073c-.116.116-.232.232-.353.344a12.137 12.137 0 01-2.932 2.01c.497.854.92 2.075 1.1 3.829.015.13.036.258.057.383z" fill="#FF6D3B"/><path d="M13.738 23.642s.77.572 1.875.572M18.787 23.642s-.77.572-1.875.572M16.262 22.044V18.02" stroke="#344154" stroke-width=".841" stroke-miterlimit="10" stroke-linecap="round"/></svg><svg fill="none" viewBox="0 0 32 31" id="specialization_allergolog-immunolog" xmlns="http://www.w3.org/2000/svg"><path d="M26.796 29.648v-7.133s-.033-2.627 1.671-4.872c.669-.881 1.228-1.843 1.567-2.899 1.015-3.16 1.611-9.352-5.119-12.985 0 0-7.59-3.962-13.391 1.415-1.073.992-1.876 2.256-2.257 3.675-.285 1.067-.471 2.475-.269 4.178.023.194.058.387.09.581.08.46.203 1.743-.6 2.98l-1.547 2.27s-.46.992.69 1.203c0 0 .355.033.626.15a.282.282 0 01.103.441c-.172.202-.328.532.16.8.146.08.197.26.114.406-.156.27-.244.675.424.875.142.042.235.18.207.328-.158.816-.434 3.22 1.753 3.185l1.806-.178a2.464 2.464 0 012.668 2.022c.146.83.248 1.977.248 3.56" stroke="#344154" stroke-width=".704" stroke-miterlimit="10" stroke-linecap="round"/><path d="M10.802 3.931c-1.711 4.658 6.131 6.244 7.947 6.516 4.71.709 11.162 3.078 9.65 7.288" stroke="#344154" stroke-width=".704" stroke-miterlimit="10" stroke-linecap="round"/><path d="M12.28 5.965c.864 1.475 4.038 2.568 6.643 2.967.622.08 1.247.138 1.874.178 1.813.122 3.707.645 3.707.645-.397-1.1-1.76-1.989-1.76-1.989 2.828.19 3.94 2.35 3.94 2.35-.125-1.82-1.634-3.767-1.634-3.767 3.898 1.715 3.821 6.922 3.821 6.922.594-2.63.455-7.081-4.91-9.978-.149-.075-2.466-1.24-5.354-1.24-2.006 0-4.285.56-6.308 2.434-.046.045-.088.091-.134.136-.198.66-.047 1.063.116 1.342z" fill="#FF6D3B"/><path d="M5.613 20.599l-3.083.982M5.144 19.098l-2.3.199M6.082 22.098L4.085 23.27M2.335 23.217l-.987.471M6.918 23.57l-1.235.965" stroke="#344154" stroke-width=".704" stroke-miterlimit="10" stroke-linecap="round"/></svg><svg fill="none" viewBox="0 0 19 32" id="specialization_dermatovenerolog" xmlns="http://www.w3.org/2000/svg"><path d="M4.186 12.15a1.883 1.883 0 00-1.426-.655c-.937 0-1.381.552-1.592 1.057a2.312 2.312 0 00-.15 1.166c.372 3.069 1.63 4.799 3.194 6.925C5.944 23 6.172 25.78 6.172 25.78M8.781 13.628V4.992a1.587 1.587 0 00-3.174 0v11.233" stroke="#344154" stroke-width=".701" stroke-miterlimit="10" stroke-linecap="round" stroke-linejoin="round"/><path d="M11.953 13.629V2.587a1.587 1.587 0 00-3.174 0v2.405" stroke="#344154" stroke-width=".701" stroke-miterlimit="10" stroke-linecap="round" stroke-linejoin="round"/><circle cx="7.5" cy="20.5" r=".5" fill="#FF6D3B"/><circle cx="10.5" cy="18.5" r=".5" fill="#FF6D3B"/><circle cx="12.5" cy="20.5" r=".5" fill="#FF6D3B"/><circle cx="10.5" cy="23.5" r=".5" fill="#FF6D3B"/><circle cx="14.5" cy="18.5" r=".5" fill="#FF6D3B"/><circle cx="7.5" cy="17.5" r=".5" fill="#FF6D3B"/><circle cx="12.5" cy="16.5" r=".5" fill="#FF6D3B"/><circle cx="13.5" cy="22.5" r=".5" fill="#FF6D3B"/><path d="M15.127 13.628V4.992a1.587 1.587 0 00-3.174 0" stroke="#344154" stroke-width=".701" stroke-miterlimit="10" stroke-linecap="round" stroke-linejoin="round"/><path d="M15.127 7.161a1.587 1.587 0 113.174 0v4.215l-.012 3.903a31.52 31.52 0 01-1.5 8.847c-.297.925-.44 1.652-.44 1.652" stroke="#344154" stroke-width=".701" stroke-miterlimit="10" stroke-linecap="round" stroke-linejoin="round"/><path d="M17.464 25.78H4.688v4.883h12.776v-4.882z" stroke="#344154" stroke-width=".701" stroke-miterlimit="10" stroke-linecap="round"/><path d="M14.62 28.22a.126.126 0 00-.126-.125.126.126 0 00-.127.126c0 .07.056.126.127.126a.124.124 0 00.126-.126z" stroke="#344154" stroke-width=".701" stroke-miterlimit="10" stroke-linecap="round" stroke-linejoin="round"/><path d="M12.21 28.221c0-.365.086-.708.238-1.015H6.116v2.03h6.335a2.245 2.245 0 01-.241-1.015z" fill="#8AA0B2"/></svg><svg fill="none" viewBox="0 0 30 32" id="specialization_detskiy-endokrinolog" xmlns="http://www.w3.org/2000/svg"><path d="M16.623 1v.4c0 1.678.359 2.716.97 3.998.378.789 1.523.69 1.77-.152.324-1.11 1.116-2.263 2.991-2.359a5.007 5.007 0 012.915.77c1.766 1.108 4.716 4.477 3.463 10.779 0 0-.14.827-.544 2.068 0 0-1.348 5.082-5.696 8.477-.425.333-.891.63-1.381.908-4.71 2.672-10.155 1.657-13.904-2.249-.362-.378-.725-.789-1.082-1.233-.518-.65-1.566-.336-1.647.492C4.37 24.013 4.39 30.002 4.39 31" stroke="#344154" stroke-width=".635" stroke-miterlimit="10" stroke-linecap="round"/><path d="M26.51 9.011c-.616-2.308-2.088-3.311-2.328-3.463a2.93 2.93 0 00-1.55-.452M6.444 13.428v3.37c0 .576.363 1.037.839 1.358a9.028 9.028 0 002.334 1.1c3.514.904 6.488-1.195 6.823-4.495.25-2.462-1.022-4.666-1.022-4.666-2.204-4.117-2.278-8.094-2.278-8.094V1M1 31v-8.834c0-2.03 1.248-3.266 2.052-3.85.408-.298.656-.769.656-1.273v-3.615" stroke="#344154" stroke-width=".635" stroke-miterlimit="10" stroke-linecap="round"/><path d="M17.153 9.688c-.045-.03-.23-.147-.468-.297l.002.007c.169.297 1.476 2.736 1.193 5.508-.204 2.007-1.186 3.72-2.767 4.821-1.129.787-2.46 1.191-3.872 1.191a7.967 7.967 0 01-1.99-.26l-.026-.006a10.402 10.402 0 01-2.755-1.293 3.733 3.733 0 01-.57-.471h-.005s1.181 2.365 3.66 3.675c8.1 4.279 15.804-7.236 7.598-12.875z" fill="#FF6D3B"/></svg><svg fill="none" viewBox="0 0 32 25" id="specialization_detskiy-nefrolog" xmlns="http://www.w3.org/2000/svg"><path d="M23.462 15.923c-1.792-.204-2.86.933-3.447 1.944-.576.994-.793 2.161-.524 3.279.334 1.375 1.26 2.195 2.131 2.675 1.153.637 2.503.822 3.798.595 2.794-.495 4.325-2.79 5.15-4.859.94-2.356 1.164-4.943.698-7.439-.51-2.732-1.728-4.332-2.784-5.24a5.173 5.173 0 00-3.95-1.22c-.857.099-1.51.404-2.005.787 0 0-.923.706-.973 1.76-.028.644.268 1.621 1.757 1.621M17.801 1l.123 5.597c.014.568.152 1.136.445 1.622.393.65.94 1.023 1.641 1.21M9.041 15.923c1.792-.204 2.86.933 3.447 1.944.575.994.793 2.161.524 3.279-.334 1.375-1.26 2.194-2.131 2.675-1.153.637-2.503.822-3.798.594-2.794-.494-4.326-2.791-5.15-4.86-.94-2.356-1.164-4.944-.698-7.44.51-2.731 1.728-4.332 2.784-5.239a5.173 5.173 0 013.95-1.221c.857.1 1.51.405 2.005.788 0 0 .923.706.973 1.76.028.643-.268 1.621-1.757 1.621M14.704 1l-.123 5.597c-.014.568-.151 1.136-.445 1.622-.393.65-.94 1.023-1.64 1.21" stroke="#344154" stroke-width=".71" stroke-miterlimit="10" stroke-linecap="round"/><path d="M9.041 15.923c2.817 0 4.555-.807 5.618-1.7a2.483 2.483 0 013.187 0c1.063.893 2.8 1.7 5.618 1.7" stroke="#344154" stroke-width=".71" stroke-miterlimit="10" stroke-linecap="round"/><path d="M23.462 19.572a6.77 6.77 0 01-2.467-.465 2.909 2.909 0 00-.123 1.703c.182.755.653 1.333 1.437 1.766.836.462 1.854.618 2.865.438 1.775-.315 3.149-1.655 4.077-3.985.587-1.477.866-3.061.828-4.666a6.808 6.808 0 01-6.617 5.209zM9.041 19.572a6.77 6.77 0 002.467-.465c.21.566.256 1.153.123 1.703-.182.755-.653 1.333-1.437 1.766-.836.462-1.854.618-2.865.438-1.775-.315-3.149-1.655-4.077-3.985a11.86 11.86 0 01-.828-4.666 6.812 6.812 0 006.617 5.209z" fill="#FF6D3B"/><path d="M16.253 11.884V9.431" stroke="#344154" stroke-width=".71" stroke-miterlimit="10" stroke-linecap="round"/></svg><svg fill="none" viewBox="0 0 24 32" id="specialization_detskiy-nevrolog" xmlns="http://www.w3.org/2000/svg"><path d="M13.789 20.705l-.566.555a1.573 1.573 0 01-2.2 0l-.565-.555" stroke="#344154" stroke-width=".83" stroke-miterlimit="10" stroke-linecap="round" stroke-linejoin="round"/><path d="M12.981 21.453l1.857 6.811L12.122 31l-2.715-2.736 1.856-6.811" stroke="#344154" stroke-width=".83" stroke-miterlimit="10" stroke-linecap="round"/><path d="M12.981 21.453l1.857 6.811L12.122 31l-2.715-2.736 1.856-6.811M16.681 28.2l6.559-1.358-.868-4.342a4.287 4.287 0 00-1.465-2.452c-.483-.396-.971-.65-1.436-.754l-3.707-1.076a.81.81 0 01-.577-.68l-.172-1.467c1.038-.805 1.805-2.011 2.174-3.418.662-.058 1.17-.794 1.17-1.725 0-.859-.432-1.552-1.022-1.7M6.877 9.24c-.573.163-.99.847-.99 1.69 0 .929.506 1.662 1.166 1.725.372 1.405 1.139 2.61 2.175 3.418l-.17 1.468a.803.803 0 01-.578.682l-3.695 1.071c-.479.106-.969.36-1.45.759a4.269 4.269 0 00-1.467 2.451L1 26.846l5.874 1.213M7.27 6.6c-.45 1.38-.393 2.639-.393 2.639M17.337 9.227s.062-1.264-.383-2.646M16.954 6.584c-1.004.512-2.027.635-3.145.512-1.172-.13-2.087-.691-3.132-1.168-.725-.33-1.563-.548-2.31-.275-.461.168-.882.506-1.097.946" stroke="#344154" stroke-width=".83" stroke-miterlimit="10" stroke-linecap="round"/><path d="M15.147 17.193L12.122 19.9l-3.024-2.707M16.952 24.47l3.422-.644" stroke="#344154" stroke-width=".83" stroke-miterlimit="10" stroke-linecap="round" stroke-linejoin="round"/><path d="M7.174 6.915V2.62c0-.895.725-1.62 1.62-1.62h6.54c.895 0 1.62.725 1.62 1.62v3.963" stroke="#344154" stroke-width=".83" stroke-miterlimit="10" stroke-linecap="round"/><path d="M12.064 4.727V2.461M10.93 3.595h2.268" stroke="#FF6D3B" stroke-width=".83" stroke-miterlimit="10" stroke-linecap="round"/><path d="M10.811 27.835l1.311 1.432 1.311-1.432-.626-2.362a8.039 8.039 0 01-1.56.718l-.436 1.644z" fill="#FF6D3B"/></svg><svg fill="none" viewBox="0 0 30 32" id="specialization_endokrinolog" xmlns="http://www.w3.org/2000/svg"><path d="M16.623 1v.4c0 1.678.359 2.716.97 3.998.378.789 1.523.69 1.77-.152.324-1.11 1.116-2.263 2.991-2.359a5.007 5.007 0 012.915.77c1.766 1.108 4.716 4.477 3.463 10.779 0 0-.14.827-.544 2.068 0 0-1.348 5.082-5.696 8.477-.425.333-.891.63-1.381.908-4.71 2.672-10.155 1.657-13.904-2.249-.362-.378-.725-.789-1.082-1.233-.518-.65-1.566-.336-1.647.492C4.37 24.013 4.39 30.002 4.39 31" stroke="#344154" stroke-width=".635" stroke-miterlimit="10" stroke-linecap="round"/><path d="M26.51 9.011c-.616-2.308-2.088-3.311-2.328-3.463a2.93 2.93 0 00-1.55-.452M6.444 13.428v3.37c0 .576.363 1.037.839 1.358a9.028 9.028 0 002.334 1.1c3.514.904 6.488-1.195 6.823-4.495.25-2.462-1.022-4.666-1.022-4.666-2.204-4.117-2.278-8.094-2.278-8.094V1M1 31v-8.834c0-2.03 1.248-3.266 2.052-3.85.408-.298.656-.769.656-1.273v-3.615" stroke="#344154" stroke-width=".635" stroke-miterlimit="10" stroke-linecap="round"/><path d="M17.153 9.688c-.045-.03-.23-.147-.468-.297l.002.007c.169.297 1.476 2.736 1.193 5.508-.204 2.007-1.186 3.72-2.767 4.821-1.129.787-2.46 1.191-3.872 1.191a7.967 7.967 0 01-1.99-.26l-.026-.006a10.402 10.402 0 01-2.755-1.293 3.733 3.733 0 01-.57-.471h-.005s1.181 2.365 3.66 3.675c8.1 4.279 15.804-7.236 7.598-12.875z" fill="#FF6D3B"/></svg><svg fill="none" viewBox="0 0 28 22" id="specialization_kosmetolog" xmlns="http://www.w3.org/2000/svg"><path d="M7.667 19.954a2.64 2.64 0 002.637-2.635c0-1.219-.383-1.872-.721-2.447-.28-.476-.52-.887-.553-1.596 0-1.934.24-4.68 1.377-6.802.675-1.259 1.357-1.706 1.361-1.709h.001a.351.351 0 00-.372-.597c-.54.338-1.105.892-1.68 1.647A16.726 16.726 0 008.214 8.24c-.935 1.816-1.61 3.774-1.805 5.24-.06.455-.237.908-.51 1.308-.601.881-.87 1.907-.87 2.532a2.64 2.64 0 002.638 2.635zM6.48 15.183a3.76 3.76 0 00.626-1.612c.185-1.39.833-3.262 1.733-5.01l.05-.097c-.333 1.25-.562 2.832-.562 4.82v.014c.039.89.349 1.418.65 1.93.32.547.624 1.063.624 2.09a1.935 1.935 0 01-3.87 0c.001-.5.235-1.382.75-2.135z" fill="#FF6D3B"/><path d="M27.494 14.002c-1.913-.198-3.498-.282-5.483-.096a.351.351 0 00-.27.528c.971 1.658 1.09 3.373.327 4.705a3.551 3.551 0 01-3.12 1.793 3.618 3.618 0 01-3.09-1.732c-.428-.711-.975-2.23.175-4.402a.352.352 0 00-.324-.516c-1.294.05-3.092.078-4.692.073h-.001a.351.351 0 00-.312.514c.77 1.479.78 3.106.024 4.352-.66 1.087-1.775 1.711-3.061 1.711a3.603 3.603 0 01-3.154-1.85c-.734-1.323-.569-3.019.452-4.652a.352.352 0 00-.255-.535c-1.518-.188-3.303.26-3.975.43-.103.026-.21.053-.24.057a.352.352 0 00.092.698c.059-.008.136-.027.32-.073.556-.14 1.916-.482 3.176-.453-.897 1.704-.97 3.454-.185 4.87a4.306 4.306 0 003.769 2.211 4.245 4.245 0 003.662-2.05c.796-1.312.875-2.97.237-4.527a128 128 0 003.587-.053c-.958 2.198-.365 3.78.103 4.558a4.325 4.325 0 003.692 2.072c1.565 0 2.96-.803 3.73-2.147.816-1.423.785-3.194-.07-4.926 1.689-.12 3.118-.036 4.814.139a.352.352 0 00.072-.7z" fill="#344154"/><path d="M18.948 19.954a2.64 2.64 0 002.637-2.635c0-1.219-.383-1.872-.721-2.447-.28-.478-.523-.89-.553-1.604-.157-3.627 1.067-6.777 2.122-8.781 1.149-2.183 2.352-3.52 2.364-3.534a.352.352 0 00-.468-.52c-2.232 1.641-3.785 4.465-4.695 6.544-1.145 2.615-1.762 5.136-1.944 6.501-.06.456-.237.909-.51 1.309-.6.881-.87 1.907-.87 2.532a2.64 2.64 0 002.638 2.635zm-1.187-4.771a3.76 3.76 0 00.626-1.612c.238-1.79 1.218-5.38 2.95-8.453-.955 2.067-1.869 4.937-1.729 8.18.039.89.35 1.418.65 1.93.32.547.624 1.063.624 2.09a1.935 1.935 0 01-3.869 0c0-.5.234-1.382.748-2.135z" fill="#344154"/></svg><svg fill="none" viewBox="0 0 26 31" id="specialization_nevrolog" xmlns="http://www.w3.org/2000/svg"><path d="M20.71 29.951v-7.207s-.032-2.652 1.706-4.923c.683-.89 1.253-1.863 1.6-2.93 1.036-3.192 1.644-9.448-5.225-13.117 0 0-7.744-4.002-13.668 1.43-1.093 1.003-1.915 2.28-2.304 3.711-.292 1.08-.48 2.502-.275 4.221.023.198.059.391.094.59.082.463.207 1.761-.615 3.01L.445 17.026s-.469 1.003.704 1.215c0 0 .363.034.639.151.176.076.23.302.106.448-.175.202-.335.537.162.808.149.08.203.264.116.41-.16.273-.25.683.433.885.146.043.24.184.21.332-.16.825-.443 3.253 1.787 3.218l1.845-.18a2.511 2.511 0 012.722 2.043c.151.838.255 1.997.255 3.596M10.199 6.122l-1.25-1.715M9.593 13.423L8.3 14.575M18.023 10.209h1.901M15.334 6.876l.996-1.52M17.442 12.613l2.009 1.385M13.247 15.188l.028 1.907M8.277 10.209H7.028" stroke="#344154" stroke-width=".707" stroke-miterlimit="10" stroke-linecap="round"/><path d="M16.391 14.267l2.155 3.75s.95-.356 1.263-1.15l-3.418-2.6zM8.91 7.608L6.395 4.612s-.622.648-.759 1.13L8.91 7.609zM17.062 7.961L20.24 6.45s-.422-.688-.813-.916L17.062 7.96zM8.102 12.015l-2.894.9s.172.73.584.954l2.31-1.854zM13.31 5.264l.573-2.411s-.584-.184-.914.014l.341 2.397zM11.824 14.493c.836-2.37-.085-3.142-2.2-1.847 2.115-1.295 1.906-2.477-.5-2.828 2.406.35 3.006-.69 1.438-2.488 1.568 1.797 2.699 1.385 2.699-.982 0 2.37 1.13 2.78 2.699.982-1.569 1.797-.968 2.839 1.437 2.488-2.405.35-2.615 1.533-.5 2.828-2.115-1.295-3.036-.523-2.2 1.847-.836-2.367-2.037-2.367-2.873 0z" fill="#FF6D3B"/></svg><svg fill="none" viewBox="0 0 26 30" id="specialization_nutriciolog" xmlns="http://www.w3.org/2000/svg"><path d="M23.389 14.514s-3.215 3.133-10.539 3.133c-7.32 0-10.538-3.133-10.538-3.133" stroke="#344154" stroke-width=".707" stroke-miterlimit="10" stroke-linecap="round" stroke-linejoin="round"/><path d="M1.723 17.355c4.53 2.993 7.007 2.727 10.359 6.849a.986.986 0 00.782.356.978.978 0 00.783-.356c3.352-4.122 5.827-3.856 10.36-6.85M12.85 24.56v5.086" stroke="#344154" stroke-width=".707" stroke-miterlimit="10" stroke-linecap="round" stroke-linejoin="round"/><path d="M4.125 10.252c-.25.705-.564 1.44-.952 2.202-1.075 2.105-1.71 4.415-1.721 6.776-.012 2.822.58 6.541 2.906 10.416M3.764.353s2.048 3.182.846 8.257" stroke="#344154" stroke-width=".707" stroke-miterlimit="10" stroke-linecap="round" stroke-linejoin="round"/><path d="M8.05 11.066C3.534 10.479.353 9.074.353 7.432c0-1.04 1.277-1.987 3.363-2.69M8.777 9.314l1.436 2.072-1.935 1.53M21.576 10.253c.25.705.563 1.44.952 2.201 1.075 2.105 1.71 4.415 1.719 6.777.011 2.821-.58 6.54-2.907 10.415M21.937.354s-2.049 3.181-.847 8.256" stroke="#344154" stroke-width=".707" stroke-miterlimit="10" stroke-linecap="round" stroke-linejoin="round"/><path d="M17.652 11.066c4.516-.586 7.695-1.991 7.695-3.634 0-1.04-1.277-1.987-3.363-2.69M16.923 9.315l-1.435 2.072 1.935 1.53" stroke="#344154" stroke-width=".707" stroke-miterlimit="10" stroke-linecap="round" stroke-linejoin="round"/><path d="M12.862 18.894c-2.81-.003-5.07-.448-6.823-1.021.612.49 1.57 1.044 2.119 1.348a13.26 13.26 0 01.426.231l-.005-.002c1.408.782 2.772 1.777 4.28 3.55 1.51-1.773 2.874-2.768 4.281-3.55l-.005.002.022-.012c.134-.075.27-.148.405-.219.55-.304 1.506-.858 2.119-1.348-1.747.573-4.01 1.018-6.819 1.02z" fill="#FF6D3B"/></svg><svg fill="none" viewBox="0 0 22 31" id="specialization_otolaringolog" xmlns="http://www.w3.org/2000/svg"><path d="M15.475 3.528c-.02.671-.18 2.288.579 3.46 1.219 1.882 3.855 6.118 4.551 7.21.209.327.35.69.386 1.074.06.638-.144 1.48-1.46 1.83-2.2.585-2.567 1.853-2.402 2.744.165.891.735 2.361-.754 3.07M12.77 23.696s1.646-.827 2.918-.83c.981-.002 1.611 1.06 1.056 1.859l-.017.023s-.146.215-.307.553c-.333.707-.373 1.506-.18 2.263.245.948.176 2.654-3.47 2.654h-2.153" stroke="#344154" stroke-width=".947" stroke-miterlimit="10" stroke-linecap="round" stroke-linejoin="round"/><path d="M15.582.474s3.886 4.742-8.87 5.004c-1.214.026-2.394.158-3.373.518-1.576.576-3.089 1.775-1.93 4.238M5.932 30.474c.754-3.06.89-6.849.869-9.532-.015-1.914 1.489-3.505 3.423-3.633l3.32-.22s3.391-.05 4.349-2.236" stroke="#344154" stroke-width=".947" stroke-miterlimit="10" stroke-linecap="round" stroke-linejoin="round"/><path d="M2.431 30.474c1.044-2.575 1.102-5.863 1.097-8.801-.007-4.08 3.368-7.382 7.503-7.382h2.035s2.514.04 2.914-1.476" stroke="#344154" stroke-width=".947" stroke-miterlimit="10" stroke-linecap="round" stroke-linejoin="round"/><path d="M13.085 12.695c.364 0 .728-.04 1.08-.12a.294.294 0 00.21-.176.286.286 0 00-.016-.271 1059.514 1059.514 0 00-2.84-4.778s.008.024.015.069c.093.595.345 3.26-1.183 3.702-1.113.319-2.799.832-3.821 2.472h.005c1.312-.588 2.746-.9 4.228-.9h2.322v.002zM14.845 28.358c.065-.083.045-.284.002-.445a4.91 4.91 0 01-.09-2.056s-1.114 2.007-4.143 2.94h2.153c1.367.003 1.949-.274 2.078-.44z" fill="#FF6D3B"/></svg><svg fill="none" viewBox="0 0 30 30" id="specialization_pediatr" xmlns="http://www.w3.org/2000/svg"><path d="M29.669 24.176c-.05-.563-.49-.99-.999-.973-.949.032-1.748.503-2.21.962a11.614 11.614 0 00-2.79-1.401c-.088-2.6-.91-5.015-2.181-6.813a5.36 5.36 0 00.871-1.927 2.14 2.14 0 10-.135-4.139A8.656 8.656 0 0020.5 6.627c.498-.154.896-.436 1.122-.838.385-.687.196-1.557-.508-2.329-.046-.05-.046-.107 0-.157.704-.771.893-1.641.508-2.328-.598-1.064-2.39-1.29-4.08-.514a7.75 7.75 0 00-1.272.763 1.76 1.76 0 00-2.538 0A7.751 7.751 0 0012.46.461c-1.69-.776-3.483-.55-4.08.514-.386.687-.197 1.557.507 2.328.046.05.046.107 0 .158-.704.77-.893 1.64-.508 2.328.226.402.624.684 1.121.838a8.657 8.657 0 00-1.725 3.258 2.143 2.143 0 00-2.75 2.052 2.143 2.143 0 002.615 2.087c.174.727.466 1.37.872 1.927-.3.424-.575.88-.82 1.363a.44.44 0 00.785.396c.192-.379.404-.74.633-1.079.224.214.471.41.74.59a2.212 2.212 0 00.56 1.96c.572.612 1.46.904 2.342.714.433.79 1.306 1.297 2.248 1.297.942 0 1.815-.507 2.248-1.297a2.486 2.486 0 002.341-.714 2.211 2.211 0 00.56-1.96 5.41 5.41 0 00.742-.59c1.634 2.424 2.355 5.926 1.622 9.262-.675-.646-1.576-.964-2.602-.911a9.918 9.918 0 00-.093-3.98.44.44 0 00-.857.195c.43 1.89.253 3.851-.501 5.52a2.232 2.232 0 00-.198.853 47.47 47.47 0 00-6.523 0c-.009-.291-.075-.58-.199-.853a8.071 8.071 0 01-.46-1.317l-.002-.003a8.966 8.966 0 01-.04-4.2.44.44 0 00-.856-.196 9.918 9.918 0 00-.093 3.98c-1.027-.052-1.927.266-2.602.912a12.647 12.647 0 01.258-6.35.44.44 0 00-.84-.256 13.653 13.653 0 00-.574 3.477 11.615 11.615 0 00-2.79 1.4c-.464-.458-1.262-.93-2.211-.96-.51-.019-.949.41-.998.972-.11 1.245.025 3 .345 4.472.1.46.378.85.78 1.098a1.707 1.707 0 001.338.196 49.577 49.577 0 014.857-1.023 2.25 2.25 0 001.844.967c.32 0 .63-.067.923-.2a2.229 2.229 0 001.164-1.224 46.571 46.571 0 016.835 0 2.236 2.236 0 002.086 1.424c.743 0 1.43-.37 1.844-.967.53.083 1.061.176 1.585.277a.44.44 0 00.167-.863 48.308 48.308 0 00-1.349-.24c.558-1.385.867-2.878.92-4.397 1.09.407 1.936.942 2.376 1.252a.74.74 0 00.977-.103 2.48 2.48 0 011.675-.763c.02-.002.084.059.094.171.103 1.164-.026 2.816-.329 4.208a.836.836 0 01-1.036.631 54.808 54.808 0 00-1.33-.331.44.44 0 10-.201.855c.438.103.878.213 1.308.326a1.707 1.707 0 001.338-.196 1.7 1.7 0 00.78-1.098c.32-1.472.456-3.227.346-4.472zM17.907 1.26c1.077-.495 2.553-.557 2.948.145.19.34.045.828-.39 1.305a.989.989 0 000 1.343c.435.477.58.965.39 1.305-.36.64-2.12.956-4.15-.59.096-.358.046-.558.06-1.4.163-.021.31-.026.448-.014.345.028.749.207.874.541a.44.44 0 10.823-.309c-.229-.61-.866-1.045-1.624-1.108a2.858 2.858 0 00-.521.006v-.036c0-.156-.021-.308-.06-.453.474-.36.961-.625 1.202-.735zm-1.223 5.91a1.983 1.983 0 01-.527-.305.601.601 0 00-.976.367c-.074.452-.032.937.113 1.386-1.06-.213-1.98-.746-2.518-1.472a4.067 4.067 0 01-.452-.783c.477-.204 1-.524 1.407-.824a1.76 1.76 0 002.538 0c.106.078.212.152.317.222-.064.47-.03.95.099 1.409zM15 1.562c.489 0 .886.398.886.886v1.867a.887.887 0 01-1.772 0V2.448c0-.488.397-.886.886-.886zM9.145 5.358c-.19-.34-.045-.828.39-1.304a.989.989 0 000-1.344c-.435-.477-.58-.965-.39-1.305.395-.702 1.87-.64 2.949-.145.24.11.727.374 1.2.735a1.76 1.76 0 00-.059.453v.036a2.848 2.848 0 00-.521-.006c-.758.063-1.395.498-1.624 1.108a.44.44 0 10.823.309c.125-.334.53-.513.874-.541a2.08 2.08 0 01.448.015v.946c0 .157.021.309.06.453-2.03 1.546-3.79 1.23-4.15.59zm8.25 13.669a.789.789 0 00-.893.399c-.27.539-.86.887-1.502.887s-1.231-.348-1.502-.887a.788.788 0 00-.89-.4 1.609 1.609 0 01-1.554-.444 1.346 1.346 0 01-.37-.898c1.162.537 2.61.81 4.316.81s3.154-.273 4.316-.81c-.006.33-.135.646-.37.898a1.61 1.61 0 01-1.551.445zM15 17.615c-2.705 0-6.045-.737-6.595-4.248a.44.44 0 00-.642-.32 1.263 1.263 0 01-1.86-1.11 1.263 1.263 0 011.937-1.066.44.44 0 00.665-.278c.314-1.463 1.047-2.816 2.069-3.831.293-.008.6-.049.912-.123.153.368.349.713.583 1.03.762 1.028 2.111 1.737 3.61 1.896a.6.6 0 00.592-.884 2.137 2.137 0 01-.242-.848c.302.165.642.28 1.003.338a.6.6 0 00.644-.846 2.608 2.608 0 01-.242-1.073c.61.299 1.31.491 1.992.51 1.022 1.015 1.755 2.368 2.07 3.83a.44.44 0 00.664.28 1.263 1.263 0 011.936 1.066 1.263 1.263 0 01-1.859 1.11.44.44 0 00-.643.319c-.549 3.511-3.889 4.248-6.594 4.248zM2.571 29.092a.835.835 0 01-1.035-.631c-.303-1.392-.432-3.044-.33-4.208.01-.111.074-.171.094-.171a2.48 2.48 0 011.677.764.74.74 0 00.975.103c.44-.31 1.287-.846 2.377-1.253a13 13 0 00.92 4.397c-1.555.255-3.126.59-4.678 1zm6.925-.085a1.369 1.369 0 01-1.245-.803 11.54 11.54 0 01-.49-1.284c.723-1.037 1.808-1.125 2.54-1.038.117.41.264.81.438 1.197a1.366 1.366 0 01-1.243 1.928zm11.008 0a1.368 1.368 0 01-1.244-1.928c.175-.386.321-.787.44-1.197.731-.087 1.816.001 2.538 1.038a11.55 11.55 0 01-.49 1.284c-.22.488-.708.803-1.244.803z" fill="#344154"/><path d="M12.169 10.4a.44.44 0 00-.44.44v.257a.44.44 0 00.879 0v-.257a.44.44 0 00-.44-.44zM17.831 10.4a.44.44 0 00-.439.44v.257a.44.44 0 10.879 0v-.257a.44.44 0 00-.44-.44zM16.19 13.292A1.661 1.661 0 0115 13.8c-.446 0-.87-.18-1.19-.508a.44.44 0 10-.628.616 2.534 2.534 0 001.818.771c.684 0 1.33-.274 1.818-.771a.44.44 0 00-.627-.616z" fill="#344154"/></svg><svg fill="none" viewBox="0 0 20 20" id="virus" xmlns="http://www.w3.org/2000/svg"><path d="M11.345 20h-2.69c-.416 0-.79-.23-.975-.603a1.084 1.084 0 01.103-1.14l.454-.606v-.56a7.193 7.193 0 01-2.004-.831l-.397.397-.106.748c-.059.412-.34.75-.734.88-.395.132-.822.031-1.116-.263L1.978 16.12a1.084 1.084 0 01-.264-1.116c.132-.394.47-.675.88-.734l.75-.106.396-.397a7.194 7.194 0 01-.83-2.004h-.561l-.605.454c-.332.25-.77.289-1.141.103A1.084 1.084 0 010 11.345v-2.69c0-.416.23-.79.603-.975.371-.186.809-.146 1.141.103l.605.454h.56a7.195 7.195 0 01.831-2.004l-.397-.397-.748-.106a1.084 1.084 0 01-.88-.734 1.084 1.084 0 01.263-1.116L3.88 1.978a1.084 1.084 0 011.116-.264c.394.132.675.47.734.88l.106.75.397.396a7.194 7.194 0 012.004-.83v-.561l-.454-.605c-.25-.332-.289-.77-.103-1.141C7.866.23 8.24 0 8.655 0h2.69c.416 0 .79.23.975.603.186.371.146.809-.103 1.141l-.454.605v.56a7.195 7.195 0 012.004.831l.397-.397.106-.748c.059-.412.34-.75.734-.88.395-.132.822-.031 1.116.263l1.902 1.902c.294.294.395.721.264 1.116a1.084 1.084 0 01-.88.734l-.75.106-.396.397c.378.626.656 1.297.83 2.004h.561l.605-.454c.332-.25.77-.289 1.141-.103.372.186.603.56.603.975v2.69c0 .416-.23.79-.603.975a1.084 1.084 0 01-1.14-.103l-.606-.454h-.56a7.192 7.192 0 01-.831 2.004l.397.397.748.106c.412.059.75.34.88.734.132.395.031.822-.263 1.116l-1.902 1.902a1.084 1.084 0 01-1.116.264 1.084 1.084 0 01-.734-.88l-.106-.75-.397-.396a7.195 7.195 0 01-2.004.83v.561l.454.605c.25.332.289.77.103 1.141-.186.372-.56.603-.975.603zM8.82 18.828h2.362l-.372-.495a1.096 1.096 0 01-.218-.654v-1.063c0-.284.204-.528.484-.577a6.06 6.06 0 002.435-1.01.586.586 0 01.75.066l.752.752c.166.166.275.385.308.617l.087.613 1.67-1.67-.613-.087a1.096 1.096 0 01-.617-.308l-.752-.752a.586.586 0 01-.066-.75 6.058 6.058 0 001.01-2.435.586.586 0 01.577-.484h1.063c.234 0 .466.077.654.218l.495.372V8.819l-.495.372c-.188.14-.42.218-.654.218h-1.063a.586.586 0 01-.577-.484 6.06 6.06 0 00-1.01-2.435.586.586 0 01.066-.75l.752-.752c.166-.166.385-.275.617-.308l.613-.087-1.67-1.67-.087.613a1.096 1.096 0 01-.308.617l-.752.752a.586.586 0 01-.75.066 6.057 6.057 0 00-2.435-1.01.586.586 0 01-.484-.577V2.321c0-.234.077-.466.218-.654l.372-.495H8.819l.372.495c.14.188.218.42.218.654v1.063a.586.586 0 01-.484.577c-.88.156-1.7.495-2.435 1.01a.586.586 0 01-.75-.066l-.752-.752a1.097 1.097 0 01-.308-.617l-.087-.613-1.67 1.67.613.087c.232.033.45.142.617.308l.752.752a.586.586 0 01.066.75 6.059 6.059 0 00-1.01 2.435.586.586 0 01-.577.484H2.321c-.234 0-.466-.077-.654-.218l-.495-.372v2.362l.495-.372c.188-.14.42-.218.654-.218h1.063c.284 0 .528.204.577.484.156.88.495 1.7 1.01 2.435a.586.586 0 01-.066.75l-.752.752a1.097 1.097 0 01-.617.308l-.613.087 1.67 1.67.087-.613c.033-.232.142-.45.308-.617l.752-.752a.586.586 0 01.75-.066 6.06 6.06 0 002.435 1.01c.28.05.484.293.484.577v1.063c0 .234-.077.466-.218.654l-.372.495z" fill="#FF6D3B"/><path d="M8.037 10.388a2.354 2.354 0 01-2.351-2.35 2.354 2.354 0 012.351-2.352 2.354 2.354 0 012.351 2.351 2.354 2.354 0 01-2.35 2.351zm0-3.53a1.18 1.18 0 000 2.358c.65 0 1.18-.529 1.18-1.179s-.53-1.18-1.18-1.18zM12.354 14.116c-.972 0-1.763-.79-1.763-1.762s.79-1.763 1.763-1.763c.972 0 1.762.79 1.762 1.763 0 .972-.79 1.762-1.762 1.762zm0-2.353a.591.591 0 100 1.183.591.591 0 000-1.183zM7.773 13.79c.307 0 .6-.27.586-.587-.014-.317-.257-.586-.586-.586-.306 0-.6.27-.585.586.014.318.257.586.585.586zM13.71 9.844c.307 0 .601-.27.587-.586-.014-.318-.258-.586-.586-.586-.306 0-.6.27-.586.586.014.317.258.586.586.586zM11.836 7.07c.306 0 .6-.27.586-.586-.014-.317-.258-.586-.586-.586-.306 0-.6.27-.586.586.014.318.258.586.586.586z" fill="#FF6D3B"/></svg></svg>