<svg width="8" height="10" viewBox="0 0 8 10" fill="none" xmlns="http://www.w3.org/2000/svg">
<path d="M4.00002 0C1.88398 0 0.162476 1.72151 0.162476 3.83753C0.162476 4.70874 0.448253 5.53057 0.989465 6.2149L4.00002 10L7.01115 6.2142C7.5518 5.53057 7.83757 4.70872 7.83757 3.83753C7.83757 1.72151 6.11604 0 4.00002 0ZM6.5145 5.82032L4.00002 8.9817L1.48609 5.821C1.03487 5.25044 0.796341 4.56457 0.796341 3.83753C0.796362 2.07103 2.23351 0.633886 4.00002 0.633886C5.76654 0.633886 7.20369 2.07103 7.20369 3.83753C7.20369 4.56457 6.96518 5.25046 6.5145 5.82032Z" fill="#45B553"/>
<path d="M4.00003 2.20605C3.12622 2.20605 2.41531 2.91696 2.41531 3.79077C2.41531 4.66458 3.12622 5.37548 4.00003 5.37548C4.87384 5.37548 5.58474 4.66458 5.58474 3.79077C5.58474 2.91696 4.87384 2.20605 4.00003 2.20605ZM4.00003 4.74159C3.47574 4.74159 3.0492 4.31505 3.0492 3.79077C3.0492 3.26648 3.47574 2.83994 4.00003 2.83994C4.52431 2.83994 4.95085 3.26648 4.95085 3.79077C4.95085 4.31505 4.52431 4.74159 4.00003 4.74159Z" fill="#45B553"/>
</svg>
